<svg width="204" height="216" viewBox="0 0 204 216" fill="none" xmlns="http://www.w3.org/2000/svg">
<circle cx="92" cy="135" r="75" fill="#F4FCFA"/>
<path d="M88 183C87.5 158 94 132 108 115.5C86.5 116.5 70 131.5 65 148.5C73.2107 162.359 86.5 181 88 183Z" fill="#3F3D56"/>
<path d="M153.887 67.165C157.709 64.5592 161.744 62.0012 166 59.5C161.798 62.0682 157.76 64.6181 153.887 67.165C92.1573 109.252 85.8678 163.82 96.2308 193.217L93 195L85.2262 181.5L67.951 151.5C68.9989 158 59.5 192.5 44 213C59.0769 190.391 60.8258 172.064 61.7692 146.87L64 144.639L67.951 151.5L85.2262 181.5C85.2262 127.092 107.995 97.345 153.887 67.165Z" fill="#24BF9C"/>
<path d="M67.951 151.5C68.9989 158 59.5 192.5 44 213C59.0769 190.391 60.8258 172.064 61.7692 146.87L64 144.639L85.2262 181.5M85.2262 181.5L93 195L96.2308 193.217C85.2262 162 93 102.399 166 59.5C112 92.5 85.2262 122.5 85.2262 181.5Z" stroke="#24BF9C" stroke-width="5" stroke-linejoin="round"/>
<circle cx="70" cy="105" r="13" fill="#3F3D56"/>
<path d="M166.9 39.9099C162.332 55.765 147.271 60.4003 147.271 60.4003C147.271 60.4003 135.972 49.7313 140.955 32.4349C145.939 15.1385 164.436 0.823734 164.436 0.823734C164.436 0.823734 171.468 24.0548 166.9 39.9099Z" fill="#24BF9C" stroke="#24BF9C" stroke-linecap="round" stroke-linejoin="round"/>
<path d="M147.271 60.4002C149.948 57.461 152.223 54.5561 154.155 51.4999M164.436 0.82363C164.121 13.9085 163.337 23.8619 161.675 31.9999C160.088 39.7744 157.7 45.892 154.155 51.4999M154.155 51.4999C158.018 44.2099 153.175 37.2933 145.5 34.9999" stroke="#F4FCFA" stroke-linecap="round" stroke-linejoin="round"/>
</svg>
