<svg width="375" height="812" viewBox="0 0 375 812" fill="none" xmlns="http://www.w3.org/2000/svg">
<rect width="375" height="812" fill="white"/>
<path d="M124.1 474H120.865V448.688H125.4L140.781 466.072V448.688H143.998V474H139.463L124.1 456.633V474ZM169.398 474H163.457V471.574C162.754 472.535 161.904 473.25 160.908 473.719C159.924 474.176 158.84 474.404 157.656 474.404C156.109 474.404 154.727 474.129 153.508 473.578C152.289 473.027 151.258 472.277 150.414 471.328C149.57 470.367 148.926 469.242 148.48 467.953C148.035 466.664 147.812 465.281 147.812 463.805C147.812 462.328 148.035 460.945 148.48 459.656C148.926 458.367 149.57 457.248 150.414 456.299C151.258 455.338 152.289 454.582 153.508 454.031C154.727 453.48 156.109 453.205 157.656 453.205C158.441 453.205 159.186 453.322 159.889 453.557C160.604 453.791 161.254 454.125 161.84 454.559C162.438 454.98 162.959 455.496 163.404 456.105C163.861 456.703 164.219 457.371 164.477 458.109L167.113 453.697H169.398V474ZM163.422 463.805C163.422 463.277 163.393 462.721 163.334 462.135C163.287 461.549 163.199 460.969 163.07 460.395C162.941 459.82 162.76 459.275 162.525 458.76C162.303 458.232 162.01 457.77 161.646 457.371C161.295 456.961 160.867 456.639 160.363 456.404C159.859 456.17 159.273 456.053 158.605 456.053C157.938 456.053 157.357 456.176 156.865 456.422C156.373 456.656 155.951 456.979 155.6 457.389C155.248 457.787 154.955 458.25 154.721 458.777C154.498 459.305 154.322 459.855 154.193 460.43C154.064 461.004 153.971 461.584 153.912 462.17C153.865 462.744 153.842 463.289 153.842 463.805C153.842 464.32 153.865 464.871 153.912 465.457C153.971 466.043 154.064 466.623 154.193 467.197C154.322 467.771 154.498 468.322 154.721 468.85C154.955 469.377 155.248 469.846 155.6 470.256C155.951 470.654 156.373 470.977 156.865 471.223C157.357 471.457 157.938 471.574 158.605 471.574C159.215 471.574 159.754 471.451 160.223 471.205C160.703 470.947 161.119 470.607 161.471 470.186C161.834 469.764 162.139 469.283 162.385 468.744C162.631 468.205 162.83 467.648 162.982 467.074C163.135 466.5 163.246 465.932 163.316 465.369C163.387 464.795 163.422 464.273 163.422 463.805ZM182.02 474H176.061V456.053H172.369V453.697H176.061V446.227H182.02V453.697H188.172V456.053H182.02V474ZM189.402 465.316C189.402 464.391 189.479 463.43 189.631 462.434C189.795 461.438 190.023 460.441 190.316 459.445C190.621 458.449 190.984 457.465 191.406 456.492C191.828 455.52 192.303 454.588 192.83 453.697H197.172C196.879 454.576 196.615 455.496 196.381 456.457C196.158 457.406 195.965 458.361 195.801 459.322C195.648 460.271 195.525 461.203 195.432 462.117C195.35 463.031 195.309 463.881 195.309 464.666C195.309 465.123 195.326 465.615 195.361 466.143C195.408 466.658 195.484 467.18 195.59 467.707C195.695 468.223 195.842 468.721 196.029 469.201C196.229 469.682 196.48 470.109 196.785 470.484C197.09 470.848 197.459 471.141 197.893 471.363C198.338 471.574 198.859 471.68 199.457 471.68C200.043 471.68 200.564 471.551 201.021 471.293C201.49 471.023 201.9 470.678 202.252 470.256C202.604 469.822 202.902 469.33 203.148 468.779C203.395 468.229 203.594 467.666 203.746 467.092C203.91 466.506 204.027 465.938 204.098 465.387C204.18 464.824 204.221 464.32 204.221 463.875V453.697H210.162V474H207.877L205.152 469.271C204.812 470.057 204.396 470.771 203.904 471.416C203.424 472.049 202.873 472.594 202.252 473.051C201.631 473.508 200.939 473.859 200.178 474.105C199.428 474.352 198.613 474.475 197.734 474.475C196.328 474.475 195.104 474.246 194.061 473.789C193.018 473.332 192.15 472.699 191.459 471.891C190.768 471.082 190.252 470.121 189.912 469.008C189.572 467.883 189.402 466.652 189.402 465.316ZM232.381 455.49L229.041 461.027C228.9 460.559 228.719 460.031 228.496 459.445C228.273 458.859 227.998 458.314 227.67 457.811C227.342 457.295 226.949 456.867 226.492 456.527C226.035 456.176 225.508 456 224.91 456C224.359 456 223.879 456.141 223.469 456.422C223.07 456.703 222.73 457.072 222.449 457.529C222.168 457.975 221.934 458.484 221.746 459.059C221.57 459.621 221.43 460.195 221.324 460.781C221.23 461.355 221.166 461.912 221.131 462.451C221.096 462.979 221.078 463.436 221.078 463.822V474H215.119V453.697H217.404L219.812 458.426C220.141 457.664 220.516 456.967 220.938 456.334C221.359 455.689 221.846 455.139 222.396 454.682C222.947 454.213 223.568 453.85 224.26 453.592C224.963 453.334 225.754 453.205 226.633 453.205C227.09 453.205 227.6 453.246 228.162 453.328C228.725 453.398 229.275 453.527 229.814 453.715C230.354 453.891 230.852 454.125 231.309 454.418C231.766 454.711 232.123 455.068 232.381 455.49ZM239.236 464.367C239.963 464.531 240.689 464.66 241.416 464.754C242.143 464.848 242.875 464.895 243.613 464.895C244.387 464.895 245.102 464.824 245.758 464.684C246.426 464.531 247 464.285 247.48 463.945C247.973 463.594 248.359 463.131 248.641 462.557C248.922 461.982 249.062 461.268 249.062 460.412C249.062 459.721 248.969 459.088 248.781 458.514C248.594 457.939 248.312 457.447 247.938 457.037C247.574 456.627 247.123 456.311 246.584 456.088C246.045 455.854 245.418 455.736 244.703 455.736C244.035 455.736 243.432 455.859 242.893 456.105C242.365 456.352 241.896 456.686 241.486 457.107C241.088 457.518 240.742 457.998 240.449 458.549C240.168 459.1 239.934 459.674 239.746 460.271C239.559 460.869 239.424 461.473 239.342 462.082C239.26 462.691 239.219 463.266 239.219 463.805C239.219 463.898 239.219 463.992 239.219 464.086C239.219 464.18 239.225 464.273 239.236 464.367ZM253.879 460.359C253.879 461.191 253.744 461.936 253.475 462.592C253.205 463.236 252.836 463.805 252.367 464.297C251.91 464.789 251.377 465.205 250.768 465.545C250.158 465.885 249.508 466.166 248.816 466.389C248.125 466.6 247.41 466.752 246.672 466.846C245.945 466.939 245.236 466.986 244.545 466.986C243.666 466.986 242.799 466.928 241.943 466.811C241.088 466.682 240.244 466.482 239.412 466.213C239.541 466.986 239.746 467.725 240.027 468.428C240.309 469.119 240.684 469.729 241.152 470.256C241.621 470.771 242.195 471.182 242.875 471.486C243.566 471.791 244.381 471.943 245.318 471.943C245.939 471.943 246.531 471.85 247.094 471.662C247.656 471.475 248.172 471.211 248.641 470.871C249.109 470.531 249.52 470.127 249.871 469.658C250.234 469.189 250.527 468.668 250.75 468.094L253.316 469.043C252.93 469.969 252.396 470.771 251.717 471.451C251.049 472.119 250.287 472.676 249.432 473.121C248.588 473.555 247.686 473.877 246.725 474.088C245.775 474.299 244.832 474.404 243.895 474.404C242.348 474.404 240.918 474.146 239.605 473.631C238.293 473.104 237.162 472.371 236.213 471.434C235.264 470.496 234.52 469.377 233.98 468.076C233.441 466.775 233.172 465.352 233.172 463.805C233.172 462.258 233.441 460.834 233.98 459.533C234.52 458.232 235.264 457.113 236.213 456.176C237.162 455.238 238.293 454.512 239.605 453.996C240.918 453.469 242.348 453.205 243.895 453.205C244.645 453.205 245.412 453.258 246.197 453.363C246.982 453.469 247.744 453.639 248.482 453.873C249.221 454.096 249.918 454.389 250.574 454.752C251.23 455.115 251.799 455.566 252.279 456.105C252.771 456.633 253.158 457.248 253.439 457.951C253.732 458.654 253.879 459.457 253.879 460.359Z" fill="#3F3D56"/>
<path d="M144.111 490.193L141.773 491.178C141.591 490.585 141.345 490.043 141.035 489.551C140.734 489.059 140.37 488.639 139.941 488.293C139.522 487.938 139.044 487.664 138.506 487.473C137.968 487.272 137.38 487.172 136.742 487.172C136.059 487.172 135.43 487.286 134.855 487.514C134.29 487.732 133.78 488.038 133.324 488.43C132.878 488.822 132.486 489.277 132.148 489.797C131.811 490.316 131.529 490.872 131.301 491.465C131.073 492.048 130.904 492.654 130.795 493.283C130.686 493.912 130.631 494.527 130.631 495.129C130.631 496.086 130.74 497.038 130.959 497.986C131.187 498.934 131.542 499.786 132.025 500.543C132.518 501.299 133.151 501.915 133.926 502.389C134.701 502.854 135.639 503.086 136.742 503.086C137.326 503.086 137.877 502.99 138.396 502.799C138.916 502.598 139.385 502.329 139.805 501.992C140.233 501.646 140.607 501.24 140.926 500.775C141.245 500.311 141.5 499.809 141.691 499.271L144.057 500.215C143.71 501.081 143.236 501.842 142.635 502.498C142.033 503.145 141.345 503.683 140.57 504.111C139.805 504.54 138.98 504.859 138.096 505.068C137.221 505.287 136.337 505.396 135.443 505.396C134.477 505.396 133.548 505.278 132.654 505.041C131.77 504.804 130.945 504.467 130.18 504.029C129.414 503.592 128.717 503.063 128.088 502.443C127.468 501.824 126.935 501.135 126.488 500.379C126.051 499.622 125.709 498.802 125.463 497.918C125.226 497.025 125.107 496.095 125.107 495.129C125.107 494.163 125.226 493.238 125.463 492.354C125.709 491.46 126.051 490.635 126.488 489.879C126.935 489.113 127.468 488.421 128.088 487.801C128.717 487.181 129.414 486.652 130.18 486.215C130.945 485.777 131.77 485.44 132.654 485.203C133.548 484.966 134.477 484.848 135.443 484.848C136.373 484.848 137.28 484.957 138.164 485.176C139.057 485.395 139.887 485.727 140.652 486.174C141.418 486.611 142.097 487.167 142.689 487.842C143.291 488.507 143.765 489.291 144.111 490.193ZM163.662 497.07C163.662 497.891 163.553 498.661 163.334 499.381C163.115 500.101 162.81 500.766 162.418 501.377C162.035 501.988 161.57 502.539 161.023 503.031C160.477 503.514 159.875 503.924 159.219 504.262C158.572 504.599 157.874 504.859 157.127 505.041C156.389 505.223 155.628 505.314 154.844 505.314C154.06 505.314 153.299 505.223 152.561 505.041C151.822 504.859 151.125 504.599 150.469 504.262C149.822 503.924 149.225 503.514 148.678 503.031C148.131 502.539 147.661 501.988 147.27 501.377C146.887 500.766 146.586 500.101 146.367 499.381C146.148 498.652 146.039 497.882 146.039 497.07C146.039 496.259 146.148 495.493 146.367 494.773C146.586 494.044 146.887 493.374 147.27 492.764C147.661 492.153 148.131 491.606 148.678 491.123C149.225 490.631 149.822 490.216 150.469 489.879C151.125 489.542 151.822 489.282 152.561 489.1C153.299 488.917 154.06 488.826 154.844 488.826C155.628 488.826 156.389 488.917 157.127 489.1C157.874 489.282 158.572 489.542 159.219 489.879C159.875 490.216 160.477 490.631 161.023 491.123C161.57 491.606 162.035 492.153 162.418 492.764C162.81 493.374 163.115 494.044 163.334 494.773C163.553 495.493 163.662 496.259 163.662 497.07ZM158.959 497.07C158.959 496.633 158.932 496.173 158.877 495.689C158.831 495.197 158.749 494.719 158.631 494.254C158.512 493.78 158.348 493.329 158.139 492.9C157.938 492.463 157.688 492.085 157.387 491.766C157.086 491.438 156.726 491.178 156.307 490.986C155.887 490.786 155.4 490.686 154.844 490.686C154.315 490.686 153.846 490.786 153.436 490.986C153.025 491.187 152.665 491.456 152.355 491.793C152.055 492.121 151.799 492.504 151.59 492.941C151.389 493.379 151.225 493.835 151.098 494.309C150.97 494.773 150.879 495.247 150.824 495.73C150.77 496.204 150.742 496.651 150.742 497.07C150.742 497.49 150.77 497.941 150.824 498.424C150.879 498.898 150.97 499.372 151.098 499.846C151.225 500.32 151.389 500.775 151.59 501.213C151.799 501.641 152.055 502.024 152.355 502.361C152.665 502.689 153.025 502.954 153.436 503.154C153.846 503.355 154.315 503.455 154.844 503.455C155.391 503.455 155.874 503.359 156.293 503.168C156.712 502.967 157.072 502.703 157.373 502.375C157.683 502.047 157.938 501.669 158.139 501.24C158.339 500.812 158.499 500.361 158.617 499.887C158.745 499.413 158.831 498.934 158.877 498.451C158.932 497.968 158.959 497.508 158.959 497.07ZM165.781 498.246C165.781 497.526 165.84 496.779 165.959 496.004C166.087 495.229 166.264 494.454 166.492 493.68C166.729 492.905 167.012 492.139 167.34 491.383C167.668 490.626 168.037 489.902 168.447 489.209H171.824C171.596 489.893 171.391 490.608 171.209 491.355C171.036 492.094 170.885 492.837 170.758 493.584C170.639 494.322 170.544 495.047 170.471 495.758C170.407 496.469 170.375 497.13 170.375 497.74C170.375 498.096 170.389 498.479 170.416 498.889C170.452 499.29 170.512 499.695 170.594 500.105C170.676 500.507 170.79 500.894 170.936 501.268C171.09 501.641 171.286 501.974 171.523 502.266C171.76 502.548 172.048 502.776 172.385 502.949C172.731 503.113 173.137 503.195 173.602 503.195C174.057 503.195 174.463 503.095 174.818 502.895C175.183 502.685 175.502 502.416 175.775 502.088C176.049 501.751 176.281 501.368 176.473 500.939C176.664 500.511 176.819 500.074 176.938 499.627C177.065 499.171 177.156 498.729 177.211 498.301C177.275 497.863 177.307 497.471 177.307 497.125V489.209H181.928V505H180.15L178.031 501.322C177.767 501.933 177.443 502.489 177.061 502.99C176.687 503.482 176.258 503.906 175.775 504.262C175.292 504.617 174.755 504.891 174.162 505.082C173.579 505.273 172.945 505.369 172.262 505.369C171.168 505.369 170.215 505.191 169.404 504.836C168.593 504.48 167.919 503.988 167.381 503.359C166.843 502.73 166.442 501.983 166.178 501.117C165.913 500.242 165.781 499.285 165.781 498.246ZM201.93 495.949C201.93 497.016 201.798 498.128 201.533 499.285C201.278 500.443 200.918 501.577 200.453 502.689C199.988 503.801 199.432 504.845 198.785 505.82C198.138 506.805 197.427 507.652 196.652 508.363L194.916 507.42C195.162 506.964 195.395 506.454 195.613 505.889C195.832 505.324 196.028 504.727 196.201 504.098C196.383 503.46 196.543 502.803 196.68 502.129C196.826 501.454 196.944 500.789 197.035 500.133C197.135 499.467 197.208 498.825 197.254 498.205C197.309 497.576 197.336 496.993 197.336 496.455C197.336 496.1 197.322 495.721 197.295 495.32C197.268 494.91 197.208 494.505 197.117 494.104C197.035 493.693 196.921 493.301 196.775 492.928C196.63 492.554 196.434 492.226 196.188 491.943C195.951 491.661 195.659 491.433 195.312 491.26C194.975 491.087 194.574 491 194.109 491C193.654 491 193.248 491.105 192.893 491.314C192.537 491.515 192.223 491.784 191.949 492.121C191.676 492.449 191.439 492.827 191.238 493.256C191.047 493.684 190.887 494.126 190.76 494.582C190.641 495.029 190.555 495.471 190.5 495.908C190.445 496.346 190.418 496.738 190.418 497.084V505H185.783V489.209H187.561L189.68 492.887C189.935 492.276 190.254 491.72 190.637 491.219C191.02 490.717 191.452 490.289 191.936 489.934C192.419 489.578 192.952 489.305 193.535 489.113C194.128 488.922 194.766 488.826 195.449 488.826C196.543 488.826 197.495 489.004 198.307 489.359C199.118 489.715 199.792 490.212 200.33 490.85C200.868 491.479 201.269 492.23 201.533 493.105C201.798 493.971 201.93 494.919 201.93 495.949ZM210.762 505H206.127V491.041H203.256V489.209H206.127V483.398H210.762V489.209H215.547V491.041H210.762V505ZM220.783 497.508C221.348 497.635 221.913 497.736 222.479 497.809C223.044 497.882 223.613 497.918 224.188 497.918C224.789 497.918 225.345 497.863 225.855 497.754C226.375 497.635 226.822 497.444 227.195 497.18C227.578 496.906 227.879 496.546 228.098 496.1C228.316 495.653 228.426 495.097 228.426 494.432C228.426 493.894 228.353 493.402 228.207 492.955C228.061 492.508 227.842 492.126 227.551 491.807C227.268 491.488 226.917 491.242 226.498 491.068C226.079 490.886 225.591 490.795 225.035 490.795C224.516 490.795 224.046 490.891 223.627 491.082C223.217 491.273 222.852 491.533 222.533 491.861C222.223 492.18 221.954 492.554 221.727 492.982C221.508 493.411 221.326 493.857 221.18 494.322C221.034 494.787 220.929 495.257 220.865 495.73C220.801 496.204 220.77 496.651 220.77 497.07C220.77 497.143 220.77 497.216 220.77 497.289C220.77 497.362 220.774 497.435 220.783 497.508ZM232.172 494.391C232.172 495.038 232.067 495.617 231.857 496.127C231.648 496.628 231.361 497.07 230.996 497.453C230.641 497.836 230.226 498.16 229.752 498.424C229.278 498.688 228.772 498.907 228.234 499.08C227.697 499.244 227.141 499.363 226.566 499.436C226.001 499.508 225.45 499.545 224.912 499.545C224.229 499.545 223.554 499.499 222.889 499.408C222.223 499.308 221.567 499.153 220.92 498.943C221.02 499.545 221.18 500.119 221.398 500.666C221.617 501.204 221.909 501.678 222.273 502.088C222.638 502.489 223.085 502.808 223.613 503.045C224.151 503.282 224.785 503.4 225.514 503.4C225.997 503.4 226.457 503.327 226.895 503.182C227.332 503.036 227.733 502.831 228.098 502.566C228.462 502.302 228.781 501.988 229.055 501.623C229.337 501.258 229.565 500.853 229.738 500.406L231.734 501.145C231.434 501.865 231.019 502.489 230.49 503.018C229.971 503.537 229.378 503.97 228.713 504.316C228.057 504.654 227.355 504.904 226.607 505.068C225.869 505.232 225.135 505.314 224.406 505.314C223.203 505.314 222.091 505.114 221.07 504.713C220.049 504.303 219.17 503.733 218.432 503.004C217.693 502.275 217.115 501.404 216.695 500.393C216.276 499.381 216.066 498.273 216.066 497.07C216.066 495.867 216.276 494.76 216.695 493.748C217.115 492.736 217.693 491.866 218.432 491.137C219.17 490.408 220.049 489.842 221.07 489.441C222.091 489.031 223.203 488.826 224.406 488.826C224.99 488.826 225.587 488.867 226.197 488.949C226.808 489.031 227.4 489.163 227.975 489.346C228.549 489.519 229.091 489.747 229.602 490.029C230.112 490.312 230.554 490.663 230.928 491.082C231.311 491.492 231.611 491.971 231.83 492.518C232.058 493.064 232.172 493.689 232.172 494.391ZM248.482 490.604L245.885 494.91C245.775 494.546 245.634 494.135 245.461 493.68C245.288 493.224 245.074 492.8 244.818 492.408C244.563 492.007 244.258 491.674 243.902 491.41C243.547 491.137 243.137 491 242.672 491C242.243 491 241.87 491.109 241.551 491.328C241.241 491.547 240.977 491.834 240.758 492.189C240.539 492.536 240.357 492.932 240.211 493.379C240.074 493.816 239.965 494.263 239.883 494.719C239.81 495.165 239.76 495.598 239.732 496.018C239.705 496.428 239.691 496.783 239.691 497.084V505H235.057V489.209H236.834L238.707 492.887C238.962 492.294 239.254 491.752 239.582 491.26C239.91 490.758 240.288 490.33 240.717 489.975C241.145 489.61 241.628 489.327 242.166 489.127C242.713 488.926 243.328 488.826 244.012 488.826C244.367 488.826 244.764 488.858 245.201 488.922C245.639 488.977 246.067 489.077 246.486 489.223C246.906 489.359 247.293 489.542 247.648 489.77C248.004 489.997 248.282 490.275 248.482 490.604Z" fill="#24BF9C"/>
<circle cx="184" cy="332" r="75" fill="#F4FCFA"/>
<path d="M180 380C179.5 355 186 329 200 312.5C178.5 313.5 162 328.5 157 345.5C165.211 359.359 178.5 378 180 380Z" fill="#3F3D56"/>
<path d="M245.887 264.165C249.709 261.559 253.744 259.001 258 256.5C253.798 259.068 249.76 261.618 245.887 264.165C184.157 306.252 177.868 360.82 188.231 390.217L185 392L177.226 378.5L159.951 348.5C160.999 355 151.5 389.5 136 410C151.077 387.391 152.826 369.064 153.769 343.87L156 341.639L159.951 348.5L177.226 378.5C177.226 324.092 199.995 294.345 245.887 264.165Z" fill="#24BF9C"/>
<path d="M159.951 348.5C160.999 355 151.5 389.5 136 410C151.077 387.391 152.826 369.064 153.769 343.87L156 341.639L177.226 378.5M177.226 378.5L185 392L188.231 390.217C177.226 359 185 299.399 258 256.5C204 289.5 177.226 319.5 177.226 378.5Z" stroke="#24BF9C" stroke-width="5" stroke-linejoin="round"/>
<circle cx="162" cy="302" r="13" fill="#3F3D56"/>
<path d="M258.9 236.91C254.332 252.765 239.271 257.4 239.271 257.4C239.271 257.4 227.972 246.731 232.955 229.435C237.939 212.138 256.436 197.824 256.436 197.824C256.436 197.824 263.468 221.055 258.9 236.91Z" fill="#24BF9C"/>
<path d="M239.271 257.4C241.948 254.461 244.223 251.556 246.155 248.5M256.436 197.824C256.121 210.909 255.337 220.862 253.675 229C252.088 236.774 249.7 242.892 246.155 248.5M246.155 248.5C250.018 241.21 245.175 234.293 237.5 232" stroke="white" stroke-linecap="round" stroke-linejoin="round"/>
</svg>
