<svg width="26" height="26" viewBox="0 0 26 26" fill="none" xmlns="http://www.w3.org/2000/svg">
    <path d="M6.73472 16.6847C6.63649 17.4837 6.8389 18.1908 7.31765 18.6696C7.79349 19.1487 8.50083 19.351 9.30296 19.2528L9.30378 19.2526C9.43955 19.2337 9.57844 19.2084 9.71733 19.1769L9.80565 19.1568L9.74161 19.0928L6.89473 16.2459L6.83069 16.1819L6.81062 16.2702C6.77931 16.4079 6.75068 16.5445 6.73472 16.6847ZM6.73472 16.6847C6.73473 16.6847 6.73474 16.6846 6.73475 16.6845L6.78438 16.6906M6.73472 16.6847C6.73471 16.6848 6.7347 16.6849 6.73469 16.685L6.78438 16.6906M6.78438 16.6906C6.79781 16.5724 6.82047 16.4566 6.84642 16.339L9.29688 19.2031C8.50625 19.3 7.81562 19.1 7.35312 18.6344C6.8875 18.1687 6.6875 17.4781 6.78438 16.6906ZM10.4724 12.9441C10.3928 12.9529 10.316 12.9672 10.2391 12.9815C10.2324 12.9827 10.2257 12.984 10.219 12.9852L10.1256 13.0025L10.1928 13.0697L12.9146 15.7916L12.9819 15.8588L12.9992 15.7654C13.0004 15.7587 13.0016 15.752 13.0029 15.7453C13.0172 15.6684 13.0314 15.5916 13.0403 15.5121C13.129 14.805 12.9804 14.1723 12.6144 13.7036L12.6153 13.7029L12.6072 13.6961C12.5494 13.6475 12.4944 13.5956 12.4421 13.5433C12.389 13.4871 12.3366 13.4316 12.2874 13.3762L12.288 13.3756L12.2809 13.3701C11.9019 13.0714 11.4124 12.9187 10.8625 12.9187C10.7351 12.9187 10.605 12.9283 10.4724 12.9441ZM10.4724 12.9441C10.4723 12.9441 10.4723 12.9441 10.4722 12.9441L10.4781 12.9937L10.4726 12.9441C10.4725 12.9441 10.4725 12.9441 10.4724 12.9441ZM14.6496 14.5785L14.5867 14.5711L14.5941 14.6339C14.6342 14.9765 14.6312 15.335 14.5879 15.7034C14.4362 16.9225 13.8294 18.1218 12.871 19.0771C11.9123 20.0326 10.716 20.6425 9.49695 20.7941C9.29578 20.8189 9.09784 20.8313 8.90625 20.8313C7.84952 20.8313 6.91263 20.4638 6.21661 19.7678C5.39454 18.9457 5.02939 17.7805 5.19024 16.4874C5.34187 15.2683 5.9487 14.0689 6.90717 13.1135C7.86576 12.1581 9.06197 11.5482 10.281 11.3965C10.6493 11.3532 11.008 11.3501 11.3509 11.3872L11.4132 11.3939L11.4059 11.3317C11.3658 10.9891 11.3688 10.6307 11.4152 10.2625L11.4152 10.2624C11.5669 9.04325 12.1737 7.84391 13.1322 6.88854C14.0908 5.933 15.2871 5.3231 16.5062 5.17149C17.8023 5.01063 18.9644 5.37578 19.7865 6.19786C20.6086 7.01993 20.9737 8.18517 20.8129 9.4782C20.6613 10.6973 20.0514 11.8966 19.096 12.8521C18.1373 13.8076 16.941 14.4175 15.722 14.5691C15.5208 14.5939 15.3228 14.6062 15.1313 14.6062C14.9675 14.6062 14.807 14.597 14.6496 14.5785ZM16.6972 6.71597L16.6969 6.71601C16.6209 6.72551 16.5451 6.73815 16.4704 6.75059L16.4699 6.75068L16.3741 6.76665L16.4428 6.83536L19.1459 9.53848L19.2113 9.60391L19.2302 9.51332C19.2461 9.43702 19.2588 9.36069 19.2684 9.28433L19.2684 9.28423C19.3667 8.48512 19.1642 7.7779 18.6854 7.29902C18.287 6.90066 17.7266 6.69063 17.0875 6.69063C16.96 6.69063 16.8299 6.70018 16.6972 6.71597ZM14.8916 7.48652L14.8612 7.45609L14.8265 7.48165C14.6217 7.63295 14.4197 7.80331 14.2334 7.98964C14.0884 8.13468 13.9556 8.28325 13.8352 8.44162L13.8088 8.47638L13.8397 8.50725L17.4772 12.1416L17.5083 12.1728L17.5431 12.1458C17.6981 12.0256 17.8465 11.893 17.9914 11.748C18.1811 11.5615 18.3484 11.3625 18.4998 11.1544L18.5249 11.1199L18.4947 11.0896L14.8916 7.48652ZM11.2365 18.3854L11.2679 18.4167L11.3027 18.3893C11.4636 18.2632 11.6182 18.1275 11.7666 17.9791C11.9499 17.7958 12.1139 17.6002 12.262 17.4018L12.2878 17.3671L12.2572 17.3365L8.64786 13.7271L8.6175 13.6968L8.5829 13.7222C8.38092 13.8705 8.18836 14.0347 8.00527 14.2178C7.85688 14.3662 7.72118 14.5208 7.59503 14.6816L7.56768 14.7165L7.59902 14.7479L11.2365 18.3854ZM10.2878 13.0233L10.2635 12.999L10.2281 13.0344C10.2347 13.0332 10.2413 13.0319 10.2479 13.0307C10.2613 13.0282 10.2745 13.0258 10.2878 13.0233ZM13.3856 12.262L13.3851 12.2624L13.3907 12.2676C13.4102 12.286 13.4293 12.3037 13.4482 12.3213C13.4851 12.3554 13.5212 12.3888 13.5579 12.4255L13.7136 12.5905L13.7132 12.5909L13.7192 12.5957C14.188 12.9617 14.8209 13.1103 15.5281 13.0215L15.5283 13.0215C15.6735 13.0025 15.8194 12.9772 15.9657 12.939L16.0502 12.917L15.9885 12.8553L13.126 9.99277L13.0628 9.92957L13.042 10.0165C13.0073 10.1616 12.9788 10.3071 12.9598 10.4529L12.9598 10.4531C12.871 11.1604 13.0195 11.7932 13.3856 12.262ZM0.15021 11.3875C0.877323 5.52418 5.52418 0.877323 11.3875 0.15021V1.719C6.38447 2.42741 2.42741 6.38447 1.719 11.3875H0.15021ZM14.6125 0.15021C20.4758 0.877323 25.1227 5.52418 25.8498 11.3875H24.281C23.5726 6.38447 19.6155 2.42741 14.6125 1.719V0.15021ZM25.8498 14.6125C25.1227 20.4758 20.4758 25.1227 14.6125 25.8498V24.281C19.6155 23.5726 23.5726 19.6155 24.281 14.6125H25.8498ZM11.3875 25.8498C5.52418 25.1227 0.877323 20.4758 0.15021 14.6125H1.719C2.42741 19.6155 6.38447 23.5726 11.3875 24.281V25.8498Z" fill="black" fill-opacity="0.3" stroke="white" stroke-width="0.1"/>
</svg>
