<svg width="24" height="24" viewBox="0 0 24 24" fill="none" xmlns="http://www.w3.org/2000/svg">
<g clip-path="url(#clip0_105_74918)">
<path d="M17.7619 2.3999C16.15 2.3999 14.6188 3.04464 13.4905 4.17293L12.5234 5.14003L11.6369 4.25352C9.29969 1.83576 5.43128 1.83576 3.09411 4.17293L3.01352 4.25352C0.595755 6.67128 0.595755 10.5397 3.01352 12.9575L12.5234 22.5479L22.0332 12.9575C24.451 10.5397 24.451 6.67128 22.0332 4.25352C20.9049 3.04464 19.3737 2.3999 17.7619 2.3999Z" fill="#459F5E"/>
<path d="M11.6906 16.7742C11.6249 16.7465 11.5702 16.6976 11.5353 16.6353C11.5003 16.573 11.4872 16.5009 11.4978 16.4303L12.0828 12.6214H10.5303C10.4811 12.6227 10.4322 12.6127 10.3874 12.5921C10.3427 12.5716 10.3033 12.541 10.2722 12.5028C10.2412 12.4646 10.2193 12.4198 10.2083 12.3718C10.1973 12.3238 10.1975 12.2739 10.2088 12.226L11.1731 8.04742C11.1901 7.97551 11.2313 7.91163 11.2899 7.86656C11.3484 7.82148 11.4207 7.79794 11.4946 7.79992H14.7089C14.7569 7.79976 14.8043 7.81035 14.8477 7.83094C14.8911 7.85152 14.9293 7.88156 14.9596 7.91885C14.9903 7.95656 15.012 8.00074 15.0231 8.04807C15.0342 8.09539 15.0345 8.14463 15.0239 8.19206L14.4678 10.6928H15.9946C16.0548 10.6927 16.1139 10.7095 16.165 10.7413C16.2162 10.7731 16.2574 10.8187 16.2839 10.8728C16.3069 10.9247 16.3158 10.9818 16.3095 11.0383C16.3033 11.0947 16.2823 11.1485 16.2485 11.1942L12.0699 16.6585C12.0417 16.7004 12.004 16.735 11.9599 16.7596C11.9157 16.7842 11.8664 16.798 11.816 16.8C11.773 16.7991 11.7305 16.7904 11.6906 16.7742Z" fill="white"/>
</g>
<defs>
<clipPath id="clip0_105_74918">
<rect width="24" height="24" fill="white"/>
</clipPath>
</defs>
</svg>
