<svg width="190" height="34" viewBox="0 0 190 34" fill="none" xmlns="http://www.w3.org/2000/svg">
<ellipse cx="16.8277" cy="20.9373" rx="11.2141" ry="11.2152" fill="#F1FAF3"/>
<path d="M16.2295 28.1149C16.1548 24.3765 17.1267 20.4886 19.22 18.0212C16.0052 18.1708 13.5381 20.4138 12.7905 22.9559C14.0182 25.0283 16.0052 27.8158 16.2295 28.1149Z" fill="#3A375F"/>
<ellipse cx="13.5382" cy="16.4513" rx="1.94378" ry="1.94396" fill="#3A375F"/>
<path d="M26.0811 10.7934C26.6526 10.4037 27.2559 10.0212 27.8923 9.64722C27.2639 10.0312 26.6602 10.4126 26.0811 10.7934C16.8512 17.0869 15.9108 25.2468 17.4603 29.6427L16.9772 29.9093L15.8148 27.8906L13.2318 23.4045C13.3885 24.3765 11.9682 29.5354 9.65063 32.6009C11.905 29.2201 12.1665 26.4796 12.3075 22.7121L12.6411 22.3785L13.2318 23.4045L15.8148 27.8906C15.8148 19.7546 19.2193 15.3064 26.0811 10.7934Z" fill="#459F5E"/>
<path fill-rule="evenodd" clip-rule="evenodd" d="M28.2663 9.42313C28.3894 9.62844 28.3239 9.89456 28.1197 10.0194C27.4959 10.4006 26.8974 10.7786 26.3238 11.1558C17.2456 17.3475 16.3936 25.3049 17.8715 29.4979C17.9424 29.6989 17.8576 29.9216 17.6709 30.0246L17.1879 30.2912C16.9797 30.406 16.7179 30.333 16.5993 30.127L13.5195 24.778C13.5101 24.8228 13.5003 24.8683 13.4901 24.9144C13.3385 25.6018 13.0982 26.4503 12.7809 27.3612C12.1482 29.177 11.1957 31.2804 9.99848 32.864C9.85627 33.0521 9.5903 33.0931 9.39808 32.9565C9.20585 32.8199 9.15702 32.5553 9.28783 32.3591C11.4731 29.0818 11.7315 26.4424 11.8718 22.6959C11.8759 22.5859 11.9214 22.4816 11.9992 22.4038L12.3327 22.0703C12.4286 21.9743 12.5637 21.9285 12.6982 21.9463C12.8327 21.9641 12.9513 22.0434 13.019 22.161L15.4221 26.3347C15.6172 22.9308 16.4723 20.1678 18.0066 17.7498C19.7623 14.9827 22.3857 12.7024 25.8385 10.4312C26.4174 10.0366 27.0279 9.64954 27.6713 9.27137C27.8777 9.15009 28.1432 9.21782 28.2663 9.42313ZM16.492 24.4212C16.3365 25.4632 16.256 26.5765 16.2511 27.7745L16.7005 28.5549C16.4331 27.3339 16.3388 25.9311 16.492 24.4212ZM12.8069 23.5405L12.7167 23.3839C12.6967 23.8378 12.673 24.2788 12.6422 24.7097C12.7117 24.3921 12.7592 24.1196 12.7849 23.9019C12.8048 23.7337 12.8095 23.6153 12.8069 23.5405Z" fill="#459F5E"/>
<path fill-rule="evenodd" clip-rule="evenodd" d="M25.3127 9.69874C25.8966 9.45499 27.4746 8.63485 28.0269 6.71781C28.5767 4.80936 28.0027 2.18625 27.7578 1.23557C27.7051 3.01922 27.5873 4.40659 27.3524 5.55685C27.1128 6.73032 26.7514 7.65786 26.2133 8.50923C25.9549 8.91804 25.6565 9.30818 25.3127 9.69874ZM27.5472 0.962646C27.0236 1.39339 24.8033 3.32408 24.1476 5.60003C23.4988 7.8521 24.6958 9.3528 25.0162 9.70317C25.4098 9.27035 25.7436 8.84378 26.0268 8.39629C26.2959 7.8857 26.2597 7.39582 26.0266 6.99156C25.7908 6.58245 25.3483 6.25319 24.7959 6.0881C24.7382 6.07086 24.7054 6.01012 24.7226 5.95243C24.7398 5.89475 24.8006 5.86196 24.8583 5.87919C25.4534 6.05704 25.9468 6.41639 26.2155 6.88268C26.3537 7.12243 26.4312 7.38837 26.4332 7.66812C26.7415 7.03545 26.9703 6.33842 27.1388 5.51323C27.3814 4.32493 27.4987 2.87181 27.5472 0.962646Z" fill="#459F5E"/>
<path d="M28.0269 6.71781L28.0064 6.7119L28.0269 6.71781ZM25.3127 9.69874L25.2967 9.68464C25.2901 9.6921 25.2896 9.70311 25.2954 9.71119C25.3012 9.71927 25.3118 9.72228 25.3209 9.71845L25.3127 9.69874ZM27.7578 1.23557L27.7785 1.23024C27.7758 1.21994 27.766 1.21317 27.7554 1.21435C27.7449 1.21553 27.7368 1.22431 27.7365 1.23494L27.7578 1.23557ZM27.3524 5.55685L27.3733 5.56112L27.3524 5.55685ZM26.2133 8.50923L26.2314 8.52064L26.2133 8.50923ZM24.1476 5.60003L24.1681 5.60594L24.1476 5.60003ZM27.5472 0.962646L27.5685 0.963189C27.5687 0.954832 27.5641 0.94712 27.5565 0.943454C27.549 0.939789 27.5401 0.940844 27.5336 0.946155L27.5472 0.962646ZM25.0162 9.70317L25.0004 9.71758C25.0045 9.72201 25.0102 9.72453 25.0162 9.72453C25.0222 9.72452 25.0279 9.72198 25.032 9.71754L25.0162 9.70317ZM26.0268 8.39629L26.0449 8.40775L26.0456 8.40625L26.0268 8.39629ZM26.0266 6.99156L26.0081 7.00222L26.0266 6.99156ZM24.7959 6.0881L24.7897 6.10856H24.7897L24.7959 6.0881ZM24.7226 5.95243L24.7021 5.94632L24.7226 5.95243ZM24.8583 5.87919L24.8522 5.89965H24.8522L24.8583 5.87919ZM26.2155 6.88268L26.197 6.89335L26.2155 6.88268ZM26.4332 7.66812L26.4119 7.66828C26.412 7.67819 26.4189 7.68675 26.4285 7.68895C26.4382 7.69114 26.4481 7.68639 26.4524 7.67747L26.4332 7.66812ZM27.1388 5.51323L27.1597 5.5175L27.1388 5.51323ZM28.0064 6.7119C27.4568 8.61957 25.8863 9.43617 25.3045 9.67904L25.3209 9.71845C25.907 9.47381 27.4924 8.65012 28.0474 6.72372L28.0064 6.7119ZM27.7371 1.2409C27.8594 1.71565 28.0639 2.60799 28.1691 3.61974C28.2744 4.63185 28.2801 5.76155 28.0064 6.7119L28.0474 6.72372C28.3234 5.76562 28.3171 4.62954 28.2116 3.61532C28.106 2.60073 27.9011 1.70618 27.7785 1.23024L27.7371 1.2409ZM27.7365 1.23494C27.6838 3.01815 27.566 4.4041 27.3315 5.55258L27.3733 5.56112C27.6085 4.40908 27.7265 3.0203 27.7792 1.2362L27.7365 1.23494ZM27.3315 5.55258C27.0923 6.72391 26.7318 7.64896 26.1953 8.49782L26.2314 8.52064C26.771 7.66677 27.1333 6.73673 27.3733 5.56112L27.3315 5.55258ZM26.1953 8.49782C25.9376 8.90553 25.6399 9.29477 25.2967 9.68464L25.3287 9.71285C25.6732 9.32159 25.9723 8.93055 26.2314 8.52064L26.1953 8.49782ZM24.1681 5.60594C24.4947 4.47218 25.2115 3.42324 25.9131 2.60327C26.6145 1.78353 27.2995 1.19405 27.5608 0.979138L27.5336 0.946155C27.2712 1.16199 26.5843 1.75322 25.8807 2.5755C25.1773 3.39755 24.4561 4.45193 24.1271 5.59412L24.1681 5.60594ZM25.0319 9.68876C24.7136 9.34059 23.5224 7.84744 24.1681 5.60594L24.1271 5.59412C23.4752 7.85675 24.6781 9.36501 25.0004 9.71758L25.0319 9.68876ZM25.032 9.71754C25.4263 9.28399 25.7609 8.85644 26.0448 8.40771L26.0087 8.38487C25.7263 8.83112 25.3933 9.25671 25.0004 9.6888L25.032 9.71754ZM26.0456 8.40625C26.3182 7.88917 26.2818 7.3915 26.0451 6.98089L26.0081 7.00222C26.2375 7.40014 26.2736 7.88224 26.0079 8.38633L26.0456 8.40625ZM26.0451 6.98089C25.8061 6.56619 25.3586 6.23398 24.802 6.06764L24.7897 6.10856C25.338 6.27241 25.7756 6.59871 26.0081 7.00222L26.0451 6.98089ZM24.802 6.06764C24.7556 6.05378 24.7292 6.00493 24.7431 5.95855L24.7021 5.94632C24.6815 6.01531 24.7208 6.08794 24.7897 6.10856L24.802 6.06764ZM24.7431 5.95855C24.7569 5.91216 24.8058 5.88579 24.8522 5.89965L24.8644 5.85873C24.7954 5.83812 24.7228 5.87733 24.7021 5.94632L24.7431 5.95855ZM24.8522 5.89965C25.4431 6.07625 25.9315 6.43265 26.197 6.89335L26.234 6.87202C25.9621 6.40012 25.4637 6.03782 24.8644 5.85873L24.8522 5.89965ZM26.197 6.89335C26.3335 7.13012 26.4098 7.39247 26.4119 7.66828L26.4546 7.66796C26.4525 7.38428 26.3739 7.11474 26.234 6.87202L26.197 6.89335ZM26.4524 7.67747C26.7616 7.04293 26.9909 6.34413 27.1597 5.5175L27.1179 5.50896C26.9497 6.3327 26.7213 7.02798 26.4141 7.65877L26.4524 7.67747ZM27.1597 5.5175C27.4027 4.32735 27.52 2.87275 27.5685 0.963189L27.5258 0.962104C27.4773 2.87087 27.3601 4.32251 27.1179 5.50896L27.1597 5.5175Z" fill="#459F5E"/>
<g clip-path="url(#clip0_105_73094)">
<path d="M61.2227 25.2108V19.9118C61.2227 18.9517 61.0029 18.1455 60.5704 17.5079C60.1454 16.8629 59.5517 16.3865 58.8041 16.064C58.0565 15.7416 57.199 15.5803 56.2389 15.5803C55.44 15.5803 54.7144 15.6829 54.0621 15.8881C53.4171 16.0934 52.8675 16.3792 52.3984 16.7457C51.9293 17.1048 51.5775 17.5225 51.3356 17.9916C51.0938 18.468 50.9692 18.9664 50.9692 19.4941H54.2673C54.2673 19.1789 54.3406 18.9077 54.4872 18.6805C54.6338 18.446 54.839 18.2628 55.1029 18.1455C55.3667 18.0136 55.6892 17.9476 56.0557 17.9476C56.4808 17.9476 56.8326 18.0283 57.0964 18.1895C57.3749 18.3507 57.5728 18.5779 57.7047 18.8638C57.8367 19.1496 57.9026 19.4868 57.9026 19.8825V20.6521H56.4221C55.4766 20.6521 54.6411 20.74 53.9229 20.9306C53.2046 21.1065 52.6036 21.3703 52.1272 21.7221C51.6508 22.0666 51.2917 22.4917 51.0498 22.9901C50.8079 23.4885 50.6833 24.0675 50.6833 24.7198C50.6833 25.438 50.8666 26.0756 51.233 26.64C51.6068 27.197 52.1125 27.6368 52.7429 27.9592C53.3878 28.2744 54.0988 28.4283 54.883 28.4283C55.4986 28.4283 56.0337 28.3403 56.4881 28.1498C56.9352 27.9592 57.3236 27.7174 57.6461 27.4315C57.7853 27.2996 57.9099 27.1677 58.0345 27.0284C58.1152 27.4902 58.2324 27.8859 58.379 28.2011H61.7138V28.0032C61.5526 27.6807 61.428 27.3069 61.3473 26.8818C61.2667 26.4494 61.2227 25.8924 61.2227 25.2108ZM56.9058 25.6652C56.5394 25.8631 56.107 25.9657 55.6086 25.9657C55.2788 25.9657 54.9929 25.9071 54.7511 25.7825C54.5092 25.6506 54.3186 25.4747 54.1867 25.2548C54.0548 25.0276 53.9888 24.7711 53.9888 24.4852C53.9888 24.1994 54.0328 23.9429 54.1281 23.7083C54.2307 23.4738 54.3773 23.2686 54.5825 23.0927C54.7877 22.9095 55.0516 22.7702 55.374 22.6676C55.6965 22.565 56.0703 22.521 56.5101 22.521H57.8953V24.6685C57.8513 24.7564 57.8147 24.8443 57.7487 24.9396C57.5508 25.2328 57.265 25.4747 56.8985 25.6725L56.9058 25.6652Z" fill="#3A375F"/>
<path d="M69.5485 25.7766C69.3872 25.7912 69.204 25.7985 68.9988 25.7985C68.7056 25.7985 68.4711 25.7619 68.2805 25.6959C68.09 25.6226 67.9434 25.4834 67.8481 25.2928C67.7601 25.1023 67.7088 24.8238 67.7088 24.472V18.1469H69.8416V15.8089H67.7088V13.8814C67.7088 13.3537 68.046 13.0458 68.2365 12.9579C68.4638 12.848 68.4784 12.76 68.3245 12.76H64.4107V15.8089H62.6224V18.1469H64.4107V24.8018C64.4107 25.6739 64.5573 26.3775 64.8431 26.9126C65.1363 27.4476 65.5467 27.836 66.0818 28.0779C66.6241 28.3124 67.2544 28.4297 67.98 28.4297C68.3758 28.4297 68.7423 28.4004 69.0647 28.3491C69.3946 28.2978 69.6951 28.2245 69.9809 28.1292L69.9662 25.7033C69.849 25.7252 69.7097 25.7472 69.5411 25.7692L69.5485 25.7766Z" fill="#3A375F"/>
<path d="M90.8548 15.5803C90.2758 15.5803 89.7628 15.7196 89.3084 15.9908C88.8613 16.2693 88.4728 16.6577 88.165 17.1561C88.1284 17.2147 88.1064 17.288 88.0697 17.3466L87.9598 15.8002H84.8595V27.0504C84.8595 27.5928 84.5224 27.9006 84.3318 27.9959C84.1046 28.1058 84.09 28.1938 84.2439 28.1938H88.1577V20.0584C88.2676 19.8092 88.3995 19.582 88.5828 19.3915C88.81 19.1643 89.0958 18.9884 89.433 18.8784C89.7774 18.7538 90.1805 18.6952 90.6496 18.6952C90.8328 18.6952 91.0381 18.7099 91.2579 18.7319C91.4851 18.7465 91.683 18.7685 91.8443 18.7905L91.9029 15.7342C91.7783 15.6903 91.6244 15.6536 91.4338 15.6316C91.2433 15.6023 91.0527 15.5877 90.8695 15.5877L90.8548 15.5803Z" fill="#3A375F"/>
<path d="M104.003 21.6488C104.003 20.74 103.886 19.9192 103.651 19.1716C103.417 18.424 103.065 17.7791 102.596 17.2514C102.141 16.7163 101.57 16.3059 100.888 16.0127C100.206 15.7196 99.4295 15.5803 98.55 15.5803C97.6705 15.5803 96.8423 15.7342 96.1241 16.0494C95.4058 16.3572 94.7975 16.797 94.2918 17.3686C93.7934 17.9403 93.4123 18.6146 93.1484 19.3988C92.8846 20.183 92.7453 21.0332 92.7453 21.9787V22.4331C92.7453 23.2539 92.8846 24.0381 93.1704 24.7711C93.4562 25.4966 93.8593 26.1343 94.387 26.684C94.9221 27.2336 95.567 27.6661 96.3366 27.9812C97.0988 28.289 97.9637 28.4356 98.9238 28.4356C99.7227 28.4356 100.441 28.3257 101.064 28.1131C101.687 27.8933 102.222 27.6074 102.669 27.263C103.116 26.9185 103.475 26.5594 103.732 26.1856L102.127 24.4412C101.753 24.9176 101.306 25.2694 100.785 25.504C100.272 25.7312 99.7227 25.8484 99.1217 25.8484C98.638 25.8484 98.2129 25.7678 97.8244 25.5993C97.4506 25.4307 97.1282 25.1961 96.8643 24.8883C96.6078 24.5805 96.4026 24.2214 96.256 23.8036C96.1754 23.5618 96.1241 23.2979 96.0947 23.0267H104.003V21.6488ZM100.763 20.828H96.1387C96.1534 20.7034 96.168 20.5788 96.19 20.4615C96.2926 19.9925 96.4319 19.5894 96.6225 19.2449C96.8203 18.9004 97.0769 18.6366 97.392 18.446C97.7072 18.2555 98.081 18.1602 98.5134 18.1602C99.0264 18.1602 99.4442 18.2701 99.774 18.4827C100.104 18.6952 100.346 18.9884 100.507 19.3548C100.676 19.714 100.756 20.1244 100.756 20.5788V20.828H100.763Z" fill="#3A375F"/>
<path d="M49.0494 11.5278H45.011V22.7121L38.2902 11.5278H34.8601V27.0583C34.8601 27.6006 34.5229 27.9085 34.3324 28.0037C34.1052 28.1137 34.0905 28.2016 34.2444 28.2016H38.2902V17.0247L44.989 28.2016H48.4264V12.6712C48.4264 12.1288 48.7636 11.821 48.9541 11.7257C49.1814 11.6158 49.196 11.5278 49.0421 11.5278H49.0494Z" fill="#3A375F"/>
<path d="M82.9541 15.8069H79.0403V24.5652C78.8718 24.9097 78.6372 25.1955 78.3221 25.4154C77.9336 25.6939 77.3986 25.8258 76.717 25.8258C76.4531 25.8258 76.2039 25.7892 75.9841 25.7232C75.7715 25.6572 75.5809 25.54 75.4197 25.3787C75.2585 25.2175 75.1339 25.0123 75.0386 24.7631C74.958 24.5139 74.914 24.1987 74.914 23.8323V16.8476C74.958 16.3786 75.2511 16.0927 75.427 16.0121C75.6542 15.9022 75.6689 15.8142 75.515 15.8142H71.6158V23.8176C71.6158 24.6385 71.7185 25.3494 71.9163 25.9358C72.1216 26.5148 72.4074 26.9912 72.7665 27.3649C73.133 27.7314 73.5654 28.0026 74.0711 28.1785C74.5842 28.347 75.1412 28.4277 75.7422 28.4277C76.5264 28.4277 77.2154 28.2884 77.7944 28.0026C78.3367 27.7314 78.7838 27.3576 79.1503 26.8885L79.2382 28.1931H82.3385V16.9502C82.3385 16.4079 82.6756 16.1001 82.8662 16.0048C83.0934 15.8948 83.108 15.8069 82.9541 15.8069Z" fill="#3A375F"/>
<path d="M110.586 16.9511C110.732 16.2841 110.945 15.7344 111.238 15.302C111.531 14.8696 111.89 14.5398 112.316 14.3272C112.741 14.1147 113.246 14.0048 113.818 14.0048C114.58 14.0048 115.196 14.1293 115.65 14.3712C116.119 14.6057 116.464 14.9649 116.691 15.4339C116.918 15.903 117.05 16.4673 117.094 17.1416H120.532C120.422 16.0129 120.107 15.0015 119.571 14.122C119.044 13.2352 118.304 12.5389 117.336 12.0405C116.383 11.5348 115.211 11.2856 113.818 11.2856C112.77 11.2856 111.825 11.4762 110.974 11.85C110.124 12.2238 109.399 12.7588 108.79 13.4551C108.189 14.1513 107.72 14.9942 107.39 15.9836C107.068 16.9657 106.907 18.0724 106.907 19.2964V20.4544C106.907 21.6784 107.061 22.7777 107.376 23.7672C107.691 24.7493 108.145 25.5921 108.739 26.2884C109.34 26.9847 110.066 27.5197 110.916 27.8935C111.766 28.2599 112.719 28.4432 113.789 28.4432C115.152 28.4432 116.325 28.2013 117.292 27.7102C118.267 27.2192 119.029 26.5449 119.571 25.6727C120.121 24.8006 120.429 23.8038 120.502 22.6825H117.08C117.036 23.3567 116.882 23.9137 116.632 24.3682C116.391 24.8152 116.031 25.1597 115.57 25.3869C115.101 25.6141 114.514 25.7314 113.796 25.7314C113.188 25.7314 112.66 25.6214 112.228 25.4016C111.803 25.1744 111.451 24.8372 111.172 24.3901C110.908 23.9431 110.703 23.3934 110.579 22.7411C110.447 22.0815 110.381 21.3266 110.381 20.4617V19.2817C110.381 18.3949 110.447 17.6253 110.586 16.9657V16.9511Z" fill="#459F5E"/>
<path d="M132.235 17.3765C131.737 16.8121 131.121 16.3724 130.388 16.0572C129.655 15.7347 128.82 15.5735 127.881 15.5735C126.943 15.5735 126.108 15.7347 125.382 16.0572C124.657 16.3724 124.048 16.8121 123.55 17.3765C123.052 17.9408 122.678 18.6077 122.414 19.3773C122.157 20.1395 122.025 20.9751 122.025 21.8839V22.1257C122.025 23.0272 122.157 23.8627 122.414 24.6323C122.67 25.3945 123.052 26.0615 123.55 26.6332C124.056 27.1975 124.671 27.6372 125.397 27.9524C126.13 28.2675 126.965 28.4215 127.903 28.4215C128.842 28.4215 129.677 28.2675 130.403 27.9524C131.128 27.6372 131.737 27.1975 132.235 26.6332C132.741 26.0615 133.122 25.3945 133.378 24.6323C133.635 23.8627 133.767 23.0272 133.767 22.1257V21.8839C133.767 20.9751 133.635 20.1395 133.378 19.3773C133.122 18.6077 132.733 17.9408 132.235 17.3765ZM130.461 22.1257C130.461 22.6461 130.41 23.1298 130.315 23.5769C130.227 24.024 130.08 24.4271 129.882 24.7642C129.684 25.1014 129.421 25.3652 129.091 25.5558C128.761 25.7463 128.373 25.8416 127.911 25.8416C127.449 25.8416 127.039 25.7463 126.709 25.5558C126.379 25.3652 126.115 25.1014 125.91 24.7642C125.712 24.4198 125.565 24.024 125.478 23.5769C125.39 23.1298 125.338 22.6388 125.338 22.1257V21.8839C125.338 21.3782 125.382 20.9091 125.478 20.462C125.565 20.0149 125.712 19.6118 125.91 19.2747C126.115 18.9229 126.379 18.6517 126.701 18.4538C127.031 18.2559 127.427 18.1533 127.889 18.1533C128.351 18.1533 128.754 18.2559 129.076 18.4538C129.406 18.6517 129.67 18.9302 129.868 19.2747C130.073 19.6192 130.22 20.0149 130.315 20.462C130.417 20.9018 130.461 21.3782 130.461 21.8839V22.1257Z" fill="#459F5E"/>
<path d="M167.871 25.7744C167.71 25.789 167.527 25.7963 167.321 25.7963C167.028 25.7963 166.794 25.7597 166.603 25.6937C166.413 25.6204 166.266 25.4812 166.171 25.2906C166.075 25.1001 166.031 24.8216 166.031 24.4698V18.1447H168.164V15.8067H166.031V13.8059C166.068 13.3222 166.369 13.0363 166.544 12.9484C166.772 12.8384 166.786 12.7505 166.632 12.7505H162.726V15.8067H160.938V18.1447H162.726V24.7996C162.726 25.6718 162.873 26.3753 163.158 26.9104C163.452 27.4454 163.862 27.8338 164.397 28.0757C164.939 28.3102 165.57 28.4275 166.295 28.4275C166.691 28.4275 167.057 28.3982 167.38 28.3469C167.71 28.2956 168.01 28.2223 168.296 28.127L168.281 25.7011C168.164 25.7231 168.025 25.745 167.856 25.767L167.871 25.7744Z" fill="#459F5E"/>
<path d="M179.414 17.2526C178.96 16.7176 178.388 16.3071 177.706 16.014C177.025 15.7208 176.248 15.5815 175.368 15.5815C174.489 15.5815 173.661 15.7355 172.942 16.0506C172.224 16.3584 171.616 16.7982 171.11 17.3699C170.612 17.9415 170.231 18.6158 169.967 19.4C169.703 20.1842 169.564 21.0344 169.564 21.9799V22.4343C169.564 23.2551 169.703 24.0394 169.989 24.7723C170.275 25.4979 170.678 26.1355 171.205 26.6852C171.74 27.2349 172.385 27.6673 173.155 27.9824C173.917 28.2903 174.782 28.4368 175.742 28.4368C176.541 28.4368 177.259 28.3269 177.882 28.1144C178.505 27.8945 179.04 27.6087 179.487 27.2642C179.935 26.9197 180.294 26.5606 180.55 26.1868L178.945 24.4425C178.571 24.9189 178.124 25.2707 177.604 25.5052C177.091 25.7324 176.541 25.8497 175.94 25.8497C175.456 25.8497 175.031 25.769 174.643 25.6005C174.269 25.4319 173.947 25.1974 173.683 24.8895C173.426 24.5817 173.221 24.2226 173.074 23.8048C172.994 23.563 172.942 23.2991 172.913 23.0279H180.821V21.6501C180.821 20.7413 180.704 19.9204 180.47 19.1728C180.235 18.4252 179.883 17.7803 179.414 17.2526ZM177.582 20.8292H172.957C172.972 20.7046 172.986 20.58 173.008 20.4627C173.111 19.9937 173.25 19.5906 173.441 19.2461C173.639 18.9016 173.895 18.6378 174.21 18.4472C174.526 18.2567 174.899 18.1614 175.332 18.1614C175.845 18.1614 176.263 18.2713 176.592 18.4839C176.922 18.6964 177.164 18.9896 177.325 19.356C177.494 19.7152 177.575 20.1256 177.575 20.58V20.8292H177.582Z" fill="#459F5E"/>
<path d="M158.49 16.6347C158.146 16.2683 157.735 16.0044 157.251 15.8359C156.768 15.6673 156.24 15.5867 155.661 15.5867C154.928 15.5867 154.261 15.7259 153.667 16.0118C153.081 16.2903 152.575 16.686 152.143 17.2137C152.121 17.2431 152.099 17.2797 152.077 17.3163L151.96 15.8212H148.867V27.0714C148.867 27.6138 148.53 27.9216 148.339 28.0169C148.112 28.1268 148.097 28.2148 148.251 28.2148H152.165V19.4345C152.216 19.3465 152.26 19.2439 152.312 19.1633C152.524 18.8481 152.795 18.6063 153.11 18.4304C153.44 18.2545 153.821 18.1665 154.268 18.1665C154.716 18.1665 155.053 18.2325 155.346 18.3644C155.646 18.489 155.866 18.7016 156.02 19.0094C156.174 19.3172 156.247 19.7423 156.247 20.292V27.1374C156.218 27.6284 155.91 27.9143 155.734 28.0022C155.507 28.1122 155.492 28.2001 155.646 28.2001H159.575V20.2993C159.575 19.4271 159.48 18.6942 159.289 18.0859C159.106 17.4849 158.842 17.0012 158.49 16.6347Z" fill="#459F5E"/>
<path d="M189.266 15.6255C189.075 15.5962 188.885 15.5815 188.701 15.5815C188.122 15.5815 187.609 15.7208 187.155 15.992C186.708 16.2705 186.319 16.6589 186.012 17.1573C185.975 17.2159 185.953 17.2892 185.916 17.3479L185.806 15.8014H182.706V27.0516C182.706 27.594 182.369 27.9018 182.178 27.9971C181.951 28.107 181.937 28.195 182.09 28.195H186.004V20.0596C186.114 19.8105 186.246 19.5833 186.429 19.3927C186.657 19.1655 186.942 18.9896 187.28 18.8797C187.624 18.7551 188.027 18.6964 188.496 18.6964C188.679 18.6964 188.885 18.7111 189.104 18.7331C189.332 18.7477 189.53 18.7697 189.691 18.7917L189.749 15.7355C189.625 15.6915 189.471 15.6548 189.28 15.6328L189.266 15.6255Z" fill="#459F5E"/>
<path d="M147.04 15.8047H143.127V24.563C142.958 24.9075 142.723 25.1933 142.408 25.4132C142.02 25.6917 141.485 25.8236 140.803 25.8236C140.539 25.8236 140.29 25.787 140.07 25.721C139.858 25.6551 139.667 25.5378 139.506 25.3765C139.345 25.2153 139.22 25.0101 139.125 24.7609C139.044 24.5117 139 24.1966 139 23.8301V16.9407C139 16.4057 139.337 16.0979 139.528 16.0099C139.755 15.9 139.77 15.812 139.616 15.812H135.702V23.8154C135.702 24.6363 135.805 25.3472 136.003 25.9336C136.208 26.5126 136.494 26.989 136.853 27.3627C137.219 27.7292 137.652 28.0004 138.157 28.1763C138.67 28.3448 139.227 28.4255 139.828 28.4255C140.613 28.4255 141.302 28.2862 141.881 28.0004C142.423 27.7292 142.87 27.3554 143.237 26.8863L143.324 28.1909H146.425V16.948C146.425 16.4057 146.762 16.0979 146.952 16.0026C147.18 15.8926 147.194 15.8047 147.04 15.8047Z" fill="#459F5E"/>
</g>
<defs>
<clipPath id="clip0_105_73094">
<rect width="155.592" height="17.1428" fill="white" transform="translate(34.1429 11.2856)"/>
</clipPath>
</defs>
</svg>
