<svg width="34" height="34" viewBox="0 0 34 34" xmlns="http://www.w3.org/2000/svg">
<path d="M17.0006 5C16.6326 5 16.334 4.70133 16.334 4.33333V1.66667C16.334 1.29867 16.6326 1 17.0006 1C17.3686 1 17.6673 1.29867 17.6673 1.66667V4.33333C17.6673 4.70133 17.3686 5 17.0006 5Z" fill="#24BF9C" stroke="#24BF9C" stroke-width="0.3"/>
<path d="M25.957 8.70937C25.7864 8.70937 25.6157 8.64403 25.485 8.5147C25.225 8.2547 25.225 7.83203 25.485 7.57203L27.3704 5.6867C27.6304 5.4267 28.053 5.4267 28.313 5.6867C28.573 5.9467 28.573 6.36937 28.313 6.62937L26.4277 8.5147C26.2984 8.64403 26.1277 8.70937 25.957 8.70937Z" fill="#24BF9C" stroke="#24BF9C" stroke-width="0.3"/>
<path d="M32.3333 17.6663H29.6667C29.2987 17.6663 29 17.3677 29 16.9997C29 16.6317 29.2987 16.333 29.6667 16.333H32.3333C32.7013 16.333 33 16.6317 33 16.9997C33 17.3677 32.7013 17.6663 32.3333 17.6663Z" fill="#24BF9C" stroke="#24BF9C" stroke-width="0.3"/>
<path d="M27.8424 28.5097C27.6717 28.5097 27.501 28.4443 27.3704 28.315L25.485 26.4297C25.225 26.1697 25.225 25.747 25.485 25.487C25.745 25.227 26.1677 25.227 26.4277 25.487L28.313 27.3723C28.573 27.6323 28.573 28.055 28.313 28.315C28.1837 28.4443 28.013 28.5097 27.8424 28.5097Z" fill="#24BF9C" stroke="#24BF9C" stroke-width="0.3"/>
<path d="M17.0006 33C16.6326 33 16.334 32.7013 16.334 32.3333V29.6667C16.334 29.2987 16.6326 29 17.0006 29C17.3686 29 17.6673 29.2987 17.6673 29.6667V32.3333C17.6673 32.7013 17.3686 33 17.0006 33Z" fill="#24BF9C" stroke="#24BF9C" stroke-width="0.3"/>
<path d="M6.15723 28.5097C5.98657 28.5097 5.8159 28.4443 5.68523 28.315C5.42523 28.055 5.42523 27.6323 5.68523 27.3723L7.57057 25.487C7.83057 25.227 8.25323 25.227 8.51323 25.487C8.77323 25.747 8.77323 26.1697 8.51323 26.4297L6.6279 28.315C6.49857 28.4443 6.3279 28.5097 6.15723 28.5097V28.5097Z" fill="#24BF9C" stroke="#24BF9C" stroke-width="0.3"/>
<path d="M4.33333 17.6663H1.66667C1.29867 17.6663 1 17.3677 1 16.9997C1 16.6317 1.29867 16.333 1.66667 16.333H4.33333C4.70133 16.333 5 16.6317 5 16.9997C5 17.3677 4.70133 17.6663 4.33333 17.6663Z" fill="#24BF9C" stroke="#24BF9C" stroke-width="0.3"/>
<path d="M8.04318 8.70937C7.87252 8.70937 7.70185 8.64403 7.57119 8.5147L5.68719 6.62937C5.42719 6.36937 5.42719 5.9467 5.68719 5.6867C5.94719 5.4267 6.36985 5.4267 6.62985 5.6867L8.51518 7.57203C8.77518 7.83203 8.77518 8.2547 8.51518 8.5147C8.38452 8.64403 8.21385 8.70937 8.04318 8.70937V8.70937Z" fill="#24BF9C" stroke="#24BF9C" stroke-width="0.3"/>
<path d="M15.0972 27.6664C15.0185 27.6664 14.9412 27.6531 14.8638 27.6251C14.5718 27.5158 14.3945 27.2198 14.4358 26.9131L15.5732 18.3331H10.9998C10.7478 18.3331 10.5172 18.1904 10.4038 17.9651C10.2905 17.7398 10.3145 17.4691 10.4665 17.2664L18.4665 6.59977C18.6518 6.35177 18.9811 6.26377 19.2625 6.38643C19.5451 6.50777 19.7091 6.8051 19.6585 7.1091L18.4531 14.3331H22.9998C23.2451 14.3331 23.4705 14.4678 23.5865 14.6838C23.7025 14.8998 23.6905 15.1611 23.5571 15.3678L15.6545 27.3678C15.5278 27.5584 15.3158 27.6664 15.0972 27.6664ZM12.3332 16.9998H16.3332C16.5265 16.9998 16.7078 17.0838 16.8345 17.2278C16.9612 17.3704 17.0198 17.5638 16.9945 17.7544L16.1398 24.2051L21.7625 15.6664H17.6665C17.4705 15.6664 17.2851 15.5811 17.1571 15.4304C17.0305 15.2811 16.9758 15.0824 17.0091 14.8904L17.8931 9.58643L12.3332 16.9998Z" fill="#24BF9C" stroke="#24BF9C" stroke-width="0.3"/>
</svg>
