<svg width="25" height="25" viewBox="0 0 25 25" fill="none" xmlns="http://www.w3.org/2000/svg">
<g clip-path="url(#clip0_8113_45802)">
<path d="M16.7021 2C15.6481 1.99973 14.6087 2.24637 13.6671 2.72016C12.7255 3.19395 11.908 3.88171 11.2802 4.72833C10.6523 5.57495 10.2314 6.55688 10.0513 7.59543C9.87128 8.63398 9.93699 9.70027 10.2432 10.7089L2.45215 18.5V23H6.95215L14.7432 15.2088C15.6717 15.4907 16.65 15.5692 17.6115 15.4388C18.573 15.3083 19.4951 14.9722 20.3149 14.4532C21.1347 13.9341 21.833 13.2445 22.3622 12.4312C22.8913 11.6179 23.2389 10.7 23.3813 9.74022C23.5236 8.78042 23.4573 7.80121 23.187 6.86933C22.9167 5.93745 22.4486 5.07481 21.8147 4.3402C21.1808 3.60558 20.3959 3.01627 19.5137 2.61243C18.6314 2.20858 17.6724 1.99969 16.7021 2V2ZM16.7021 14C16.1857 13.9997 15.6722 13.9233 15.178 13.7733L14.3179 13.5125L13.6825 14.1479L11.2967 16.5338L10.2627 15.5L9.20215 16.5606L10.2362 17.5945L9.04675 18.784L8.01272 17.75L6.95215 18.8106L7.98617 19.8445L6.33085 21.5H3.95215V19.1213L11.3039 11.7696L11.9393 11.134L11.6788 10.274C11.3582 9.21724 11.3791 8.0863 11.7383 7.04206C12.0976 5.99781 12.777 5.09345 13.6799 4.4576C14.5827 3.82175 15.6631 3.4868 16.7674 3.5004C17.8716 3.514 18.9434 3.87545 19.8304 4.53333C20.7173 5.19122 21.3743 6.11204 21.7077 7.16482C22.0411 8.21759 22.0341 9.3487 21.6876 10.3972C21.3411 11.4458 20.6728 12.3584 19.7778 13.0052C18.8827 13.652 17.8065 14.0001 16.7021 14V14Z" fill="#459F5E"/>
<path d="M17.4521 9.5C18.2806 9.5 18.9521 8.82843 18.9521 8C18.9521 7.17157 18.2806 6.5 17.4521 6.5C16.6237 6.5 15.9521 7.17157 15.9521 8C15.9521 8.82843 16.6237 9.5 17.4521 9.5Z" fill="#459F5E"/>
</g>
<defs>
<clipPath id="clip0_8113_45802">
<rect width="24" height="24" fill="white" transform="translate(0.952148 0.5)"/>
</clipPath>
</defs>
</svg>
