<svg width="13" height="17" stroke="currentColor" viewBox="0 0 13 17" xmlns="http://www.w3.org/2000/svg">
<path d="M12.3765 0.766283C12.3339 0.575699 12.1763 0.432391 11.9825 0.408151C10.0733 0.169521 8.30957 0.225709 6.7404 0.575144C4.74217 1.02006 3.02917 1.94534 1.64873 3.32557C-0.504039 5.48049 -0.504039 8.98683 1.64894 11.1419C1.85661 11.3495 2.07813 11.5383 2.31111 11.7079V15.5901C2.31111 15.8456 2.51823 16.0527 2.7737 16.0527C3.02917 16.0527 3.23628 15.8456 3.23628 15.5901V12.252C3.95442 12.5843 4.74257 12.7597 5.55798 12.7597C7.03534 12.7597 8.423 12.1851 9.46516 11.1419C11.0945 9.51266 10.7571 7.26781 10.6461 6.00802C10.4765 4.08469 10.3301 2.42365 12.1724 1.2581C12.3374 1.15368 12.4192 0.956897 12.3765 0.766283ZM2.30303 3.97963C3.93228 2.35069 6.04943 1.43111 8.62135 1.22973C7.51825 1.76716 6.45227 2.55092 5.52156 3.53336C3.6967 5.45961 2.59508 7.91672 2.35935 10.5427C0.515739 8.75967 0.487337 5.79714 2.30303 3.97963ZM9.72443 6.08928C9.86965 7.73632 10.0068 9.29201 8.81076 10.4879C7.94321 11.3563 6.78802 11.8345 5.55792 11.8345C4.73156 11.8345 3.93885 11.6184 3.24411 11.2135C3.339 8.5747 4.37722 6.0865 6.19317 4.16959C7.02754 3.28887 8.00489 2.56153 9.01958 2.06623C9.51429 1.82473 10.0134 1.64038 10.5033 1.51647C10.1397 1.9821 9.89336 2.51469 9.75897 3.12243C9.54729 4.07979 9.63734 5.10136 9.72443 6.08928Z" fill="#25BF9D"/>
</svg>
