<svg width="28" height="36" viewBox="0 0 28 36" xmlns="http://www.w3.org/2000/svg">
<path d="M23.8049 8.57577C23.2778 8.05441 22.7108 7.58767 22.1119 7.17691V3.51575C22.1119 3.12749 21.7971 2.81263 21.4087 2.81263C21.0204 2.81263 20.7056 3.12749 20.7056 3.51575V6.34568C20.03 6.00614 19.3241 5.73185 18.5962 5.52499V0.703122C18.5962 0.314858 18.2814 0 17.893 0C17.5047 0 17.1899 0.314858 17.1899 0.703122V5.21485C16.5587 5.11458 15.9154 5.06262 15.2645 5.06262C15.203 5.06262 15.1418 5.06396 15.0804 5.06487V3.51575C15.0804 3.12749 14.7656 2.81263 14.3773 2.81263C13.989 2.81263 13.6742 3.12749 13.6742 3.51575V5.16633C12.9542 5.2602 12.2489 5.41763 11.5647 5.63595V0.703122C11.5647 0.314858 11.2499 0 10.8616 0C10.4733 0 10.1585 0.314858 10.1585 0.703122V6.18396C8.90032 6.76811 7.73919 7.57178 6.72402 8.57577C4.43142 10.8433 3.16882 13.8471 3.16882 17.0336C3.16882 17.7637 2.51879 19.1052 1.43007 20.622C0.417225 22.0332 0.56242 23.0266 0.862512 23.6114C1.17892 24.2279 1.96184 24.9506 3.88066 25.0924V28.1688C3.88066 30.2496 5.58876 31.9424 7.68828 31.9424C9.52357 31.9424 10.5342 32.0105 10.9647 32.3826C11.3863 32.7469 11.5192 33.6654 11.6292 35.343C11.6535 35.7127 11.9603 36.0001 12.3309 36.0001H22.4133C22.6078 36.0001 22.7935 35.9196 22.9264 35.7777C23.0593 35.6358 23.1276 35.4452 23.1149 35.2511C23.0258 33.8914 22.9888 32.8895 22.9947 32.0028C22.9973 31.6144 22.6846 31.2975 22.2963 31.2949C21.9098 31.2932 21.5911 31.6051 21.5884 31.9933C21.5835 32.7422 21.6076 33.5644 21.6657 34.594H12.9854C12.8629 33.064 12.6563 31.9859 11.8842 31.3188C11.0398 30.589 9.73571 30.5363 7.68828 30.5363C6.36416 30.5363 5.28691 29.4743 5.28691 28.1689V25.8205V24.4142C5.28691 24.026 4.97212 23.7111 4.58379 23.7111C3.27535 23.7111 2.35194 23.4339 2.11365 22.9695C1.94483 22.6405 2.1121 22.0838 2.57251 21.4422C3.48607 20.1693 4.575 18.3714 4.575 17.0338C4.575 13.0349 6.83476 9.54791 10.1584 7.75438V10.8354C10.1584 11.2237 10.4732 11.5385 10.8615 11.5385C11.2499 11.5385 11.5647 11.2237 11.5647 10.8354V7.12178C12.2387 6.87527 12.9445 6.69415 13.6741 6.58608V13.648C13.6741 14.0362 13.9889 14.3511 14.3772 14.3511C14.7656 14.3511 15.0803 14.0362 15.0803 13.648V6.47119C15.1417 6.47013 15.2029 6.46887 15.2644 6.46887C15.9216 6.46887 16.5651 6.52814 17.1899 6.64099V10.8352C17.1899 11.2234 17.5046 11.5383 17.893 11.5383C18.2813 11.5383 18.5961 11.2234 18.5961 10.8352V6.99494C19.3382 7.23618 20.0447 7.55561 20.7055 7.94345V17.3742C20.7055 17.7624 21.0203 18.0773 21.4087 18.0773C21.797 18.0773 22.1118 17.7624 22.1118 17.3742V8.92768C24.4584 10.8672 25.9538 13.7808 25.9538 17.0336C25.9538 18.9704 25.4121 20.868 24.3872 22.5212C23.7271 23.5861 23.2101 24.5735 22.8067 25.5401C22.6572 25.8986 22.8264 26.3103 23.1848 26.4598C23.5431 26.6094 23.9549 26.4401 24.1045 26.0818C24.4788 25.185 24.9622 24.2627 25.5825 23.2621C26.7454 21.3862 27.36 19.2324 27.36 17.0336C27.3601 13.8471 26.0975 10.8433 23.8049 8.57577Z" fill="#24BF9C"/>
</svg>
