<svg width="30" height="36" viewBox="0 0 30 36" fill="none" xmlns="http://www.w3.org/2000/svg">
<path fill-rule="evenodd" clip-rule="evenodd" d="M29.7665 7.30616C29.7665 5.82243 28.6812 4.58746 27.2628 4.35353C26.8792 2.92668 25.5881 1.86911 24.0767 1.81483C23.2327 0.671202 21.9136 0 20.4723 0C18.6055 0 16.964 1.14222 16.2982 2.84034C14.8349 2.88625 13.6008 3.85495 13.1582 5.18244C10.3808 5.57352 7.82111 6.91747 5.91016 8.99907C3.88038 11.2101 2.76256 14.0635 2.76256 17.0337C2.76256 17.7637 2.11252 19.1052 1.0238 20.6221C0.0110238 22.0333 0.156148 23.0266 0.456241 23.6115C0.772647 24.228 1.55558 24.9507 3.4744 25.0924V28.1689C3.4744 30.2497 5.1825 31.9426 7.28202 31.9426C9.11732 31.9426 10.1279 32.0106 10.5584 32.3827C10.98 32.747 11.113 33.6654 11.223 35.3431C11.2472 35.7128 11.5541 36.0002 11.9246 36.0002H22.007C22.2015 36.0002 22.3873 35.9196 22.5203 35.7777C22.6532 35.6358 22.7214 35.4452 22.7087 35.2511C22.6195 33.892 22.5825 32.8902 22.5885 32.0029C22.5911 31.6145 22.2784 31.2976 21.89 31.295H21.8853C21.4991 31.295 21.1848 31.6068 21.1822 31.9935C21.1772 32.7426 21.2013 33.5648 21.2596 34.594H12.5791C12.4567 33.0641 12.25 31.986 11.4779 31.3188C10.6335 30.5891 9.32945 30.5364 7.28202 30.5364C5.9579 30.5364 4.88065 29.4745 4.88065 28.169V25.8207V24.4143C4.88065 24.026 4.56586 23.7112 4.17752 23.7112C2.86908 23.7112 1.94567 23.434 1.70738 22.9696C1.53856 22.6405 1.70583 22.0838 2.16624 21.4423C3.07981 20.1694 4.16873 18.3714 4.16873 17.0339C4.16873 12.3786 7.19892 8.39326 11.5076 6.99819C11.3848 7.28429 11.3165 7.59901 11.3165 7.92955C11.3165 9.23609 12.3795 10.299 13.686 10.299H16.0197L15.1029 14.1397C15.0562 14.3356 15.0956 14.5421 15.2114 14.7069C15.3271 14.8718 15.5079 14.979 15.708 15.0016L16.8214 15.1273L16.1012 18.5302C16.0342 18.8466 16.1917 19.1679 16.4828 19.3088C16.5808 19.3561 16.6852 19.379 16.7888 19.379C16.9929 19.3789 17.1931 19.29 17.3302 19.1249L22.0812 13.4004C22.237 13.2127 22.2844 12.9575 22.2062 12.7264C22.1282 12.4952 21.9358 12.321 21.6981 12.2662L20.5262 11.9958L21.2113 10.2989H23.0752C24.6715 12.1962 25.5476 14.5757 25.5476 17.0338C25.5476 18.9706 25.0059 20.8682 23.9811 22.5214C23.321 23.5859 22.8042 24.5735 22.4006 25.5403C22.251 25.8987 22.4203 26.3105 22.7787 26.46C22.8672 26.4969 22.9589 26.5144 23.0492 26.5144C23.3244 26.5144 23.5858 26.3518 23.6983 26.0819C24.0727 25.1849 24.5562 24.2626 25.1762 23.2624C26.3392 21.3864 26.9539 19.2327 26.9539 17.0338C26.9539 14.6224 26.2119 12.2791 24.8425 10.2989H26.7739C28.4241 10.2987 29.7665 8.95625 29.7665 7.30616ZM13.6861 6.96599C13.1549 6.96599 12.7228 7.39806 12.7228 7.9292C12.7228 8.46033 13.1549 8.89247 13.686 8.89247H26.7739C27.6486 8.89247 28.3603 8.18084 28.3603 7.30616C28.3603 6.43147 27.6486 5.71984 26.7739 5.71984H26.6667C26.3001 5.71984 25.995 5.43817 25.9658 5.07283C25.8827 4.03319 24.9992 3.21883 23.9546 3.21883C23.8949 3.21883 23.8331 3.22164 23.7712 3.2272C23.5034 3.25152 23.2463 3.12095 23.1072 2.89146C22.5433 1.96143 21.5582 1.40625 20.4723 1.40625C19.0544 1.40625 17.8257 2.3658 17.4845 3.73984C17.3974 4.09042 17.059 4.31816 16.7013 4.2662C16.6037 4.25207 16.5048 4.2449 16.4072 4.2449C15.2945 4.2449 14.3892 5.15017 14.3892 6.26286C14.3892 6.65113 14.0744 6.96599 13.6861 6.96599ZM19.4081 13.1808C19.2077 13.1346 19.0376 13.0029 18.9426 12.8205C18.8475 12.6381 18.8372 12.4232 18.9141 12.2325L19.6948 10.2987H17.4656L16.6554 13.6931L17.7487 13.8166C17.9456 13.8387 18.124 13.9432 18.24 14.1039C18.356 14.2647 18.3987 14.4669 18.3576 14.6609L18.0667 16.0354L20.2706 13.3798L19.4081 13.1808Z" fill="black" fill-opacity="0.3"/>
<path d="M27.1829 4.44171L27.1662 4.37949C26.7938 2.99429 25.5398 1.96745 24.0731 1.91477L24.0249 1.91304L23.9962 1.87421C23.1711 0.756119 21.8818 0.1 20.4723 0.1C18.6469 0.1 17.0422 1.21674 16.3913 2.87684L16.3673 2.93822L16.3014 2.94029C14.8812 2.98485 13.6828 3.92512 13.2531 5.21407L13.2335 5.27283L13.1722 5.28147C10.4177 5.66931 7.87914 7.00213 5.98383 9.0667C3.97079 11.2595 2.86256 14.0889 2.86256 17.0337C2.86256 17.4223 2.69149 17.9572 2.39144 18.5764C2.08973 19.1991 1.65179 19.9186 1.10504 20.6804C0.60644 21.3752 0.397737 21.9602 0.347137 22.4372C0.296609 22.9136 0.403033 23.2887 0.545213 23.5658C0.841749 24.1436 1.58811 24.8528 3.48177 24.9927L3.5744 24.9996V25.0924V28.1689C3.5744 30.1936 5.23688 31.8426 7.28202 31.8426C8.19954 31.8426 8.91639 31.8595 9.45879 31.9238C9.99723 31.9876 10.3842 32.0999 10.6238 32.3071C10.861 32.512 11.0049 32.8611 11.1055 33.3502C11.2067 33.8426 11.2678 34.4978 11.3227 35.3365C11.3436 35.6537 11.6068 35.9002 11.9246 35.9002H22.007C22.1739 35.9002 22.3332 35.8311 22.4473 35.7094C22.5613 35.5877 22.6198 35.4241 22.6089 35.2576C22.5197 33.8972 22.4825 32.8928 22.4885 32.0022C22.4907 31.6692 22.2226 31.3974 21.8897 31.395C21.8896 31.395 21.8895 31.395 21.8894 31.395L21.8853 31.395C21.554 31.395 21.2844 31.6625 21.2822 31.9941C21.2772 32.7406 21.3012 33.5606 21.3594 34.5884L21.3654 34.694H21.2596H12.5791H12.4868L12.4795 34.602C12.3566 33.0675 12.1497 32.0315 11.4125 31.3945C11.0099 31.0466 10.4934 30.8557 9.8161 30.7529C9.13725 30.6498 8.30682 30.6364 7.28202 30.6364C5.90402 30.6364 4.78065 29.531 4.78065 28.169V25.8207V24.4143C4.78065 24.0812 4.51062 23.8112 4.17752 23.8112C3.51725 23.8112 2.94889 23.7413 2.51239 23.6103C2.08076 23.4807 1.75668 23.2847 1.61841 23.0152L1.70738 22.9696L1.61841 23.0152C1.51731 22.8182 1.52316 22.567 1.60508 22.2943C1.68752 22.02 1.85074 21.7104 2.085 21.384C2.54011 20.7499 3.03742 19.9869 3.42056 19.2177C3.80489 18.4461 4.06873 17.6791 4.06873 17.0339C4.06873 12.3339 7.12811 8.31107 11.4768 6.90305L11.6863 6.8352L11.5995 7.03762C11.4819 7.31159 11.4165 7.61292 11.4165 7.92955C11.4165 9.18086 12.4347 10.199 13.686 10.199H16.0197H16.1464L16.117 10.3222L15.2002 14.163L15.1029 14.1397L15.2002 14.163C15.1601 14.3309 15.1939 14.5081 15.2932 14.6494L15.2932 14.6494C15.3925 14.7909 15.5475 14.8828 15.7192 14.9022L16.8327 15.0279L16.9421 15.0403L16.9193 15.148L16.199 18.5509C16.1416 18.8223 16.2766 19.0979 16.5264 19.2187C16.6104 19.2594 16.7 19.279 16.7888 19.279L27.1829 4.44171ZM27.1829 4.44171L27.2465 4.4522M27.1829 4.44171L27.2465 4.4522M27.2465 4.4522C28.6175 4.6783 29.6665 5.87223 29.6665 7.30616C29.6665 8.90102 28.3689 10.1987 26.7739 10.1989H24.8425H24.6518L24.7603 10.3557C26.1182 12.3195 26.8539 14.643 26.8539 17.0338C26.8539 19.214 26.2444 21.3495 25.0912 23.2097C24.4689 24.2135 23.9828 25.1406 23.6061 26.0434L23.6983 26.0819M27.2465 4.4522L23.6983 26.0819M22.1115 12.7584L22.1115 12.7584C22.0446 12.5601 21.8795 12.4107 21.6756 12.3636L21.6981 12.2662L21.6756 12.3636L20.5037 12.0932L20.3896 12.0669L20.4335 11.9583L21.1185 10.2614L21.1438 10.1989H21.2113H23.0752H23.1218L23.1518 10.2345C24.763 12.1496 25.6476 14.5518 25.6476 17.0338C25.6476 18.9893 25.1007 20.9052 24.0661 22.5741L23.9811 22.5214L24.0661 22.5741C23.4083 23.6349 22.8941 24.6177 22.4929 25.5789C22.3646 25.8863 22.5098 26.2394 22.8171 26.3677C22.8172 26.3677 22.8172 26.3677 22.8172 26.3677M22.1115 12.7584L22.8172 26.3677M22.1115 12.7584C22.1785 12.9566 22.1379 13.1755 22.0042 13.3365L17.2532 19.061C17.1357 19.2026 16.9641 19.2789 16.7888 19.279L22.1115 12.7584ZM22.8172 26.3677C22.8933 26.3995 22.9719 26.4144 23.0492 26.4144C23.2855 26.4144 23.5096 26.2748 23.6061 26.0434L23.6983 26.0819M22.8172 26.3677L23.6983 26.0819M23.7623 3.1276L23.7621 3.12761L17.4845 3.73984L17.3874 3.71573C17.3874 3.71573 17.3874 3.71574 17.3874 3.71574C17.3127 4.01651 17.0224 4.2118 16.7157 4.16724L16.7156 4.16723C16.6133 4.15242 16.5096 4.1449 16.4072 4.1449C15.2392 4.1449 14.2892 5.09494 14.2892 6.26286C14.2892 6.5959 14.0192 6.86599 13.6861 6.86599C13.0997 6.86599 12.6228 7.34282 12.6228 7.9292C12.6228 8.51556 13.0997 8.99247 13.686 8.99247H26.7739C27.7039 8.99247 28.4603 8.23607 28.4603 7.30616C28.4603 6.37624 27.7038 5.61984 26.7739 5.61984H26.6667C26.3522 5.61984 26.0906 5.37822 26.0655 5.06486C25.9782 3.97311 25.0512 3.11883 23.9546 3.11883C23.8918 3.11883 23.8271 3.12179 23.7623 3.1276ZM19.0312 12.7743L19.0312 12.7743C18.9497 12.6178 18.9408 12.4335 19.0069 12.27L19.7876 10.3362L19.843 10.1987H19.6948H17.4656H17.3866L17.3683 10.2755L16.5581 13.6699L16.5319 13.7798L16.6441 13.7925L17.7374 13.916L17.7375 13.916C17.9064 13.935 18.0594 14.0245 18.1589 14.1624L18.24 14.1039L18.1589 14.1624C18.2584 14.3003 18.295 14.4738 18.2598 14.6402L17.9688 16.0147L18.1436 16.0992L20.3476 13.4437L20.4512 13.3188L20.2931 13.2824L19.4306 13.0834C19.4306 13.0834 19.4306 13.0834 19.4306 13.0834C19.2587 13.0437 19.1128 12.9308 19.0312 12.7743Z" stroke="black" stroke-opacity="0.3" stroke-width="0.2"/>
</svg>
