<svg width="27" height="36" viewBox="0 0 27 36" fill="none" xmlns="http://www.w3.org/2000/svg">
<path fill-rule="evenodd" clip-rule="evenodd" d="M23.3364 8.98991L25.0814 6.74804C25.2268 6.5614 25.2668 6.31352 25.1876 6.09058C25.1084 5.86771 24.921 5.70061 24.6906 5.64741L22.5991 5.16474L24.8247 1.02055C24.94 0.805852 24.934 0.546333 24.8089 0.33718C24.6838 0.128027 24.4581 0 24.2144 0H18.4474C18.1267 0 17.848 0.22003 17.7735 0.531923L16.6587 5.20174C15.9192 5.06048 15.1652 4.98815 14.409 4.98815C11.2394 4.98815 8.25089 6.21743 5.99399 8.4496C3.73502 10.6838 2.49097 13.6434 2.49097 16.7832C2.49097 17.5025 1.85056 18.8243 0.777846 20.3189C-0.220117 21.7094 -0.0770559 22.6881 0.218626 23.2643C0.530382 23.8718 1.3018 24.5838 3.19242 24.7236V27.7547C3.19242 29.805 4.87542 31.4729 6.94408 31.4729C8.7524 31.4729 9.74815 31.54 10.1724 31.9066C10.5878 32.2656 10.7187 33.1705 10.8271 34.8234C10.851 35.1877 11.1533 35.4709 11.5184 35.4709H21.4527C21.6443 35.4709 21.8273 35.3915 21.9583 35.2517C22.0894 35.1119 22.1565 34.924 22.144 34.7328C22.0562 33.3932 22.0197 32.4061 22.0256 31.5322C22.0282 31.1497 21.7201 30.8373 21.3375 30.8348C20.9537 30.831 20.6426 31.1403 20.64 31.5229C20.6351 32.2608 20.6588 33.0708 20.7162 34.0854H12.1634C12.0427 32.5779 11.8391 31.5157 11.0784 30.8583C10.2464 30.1393 8.96149 30.0874 6.94415 30.0874C5.63949 30.0874 4.57807 29.041 4.57807 27.7548V26.8265V24.0552C4.57807 23.6726 4.26791 23.3624 3.88528 23.3624C2.59607 23.3624 1.68623 23.0893 1.45144 22.6317C1.28511 22.3076 1.44992 21.759 1.90363 21.1269C2.8037 19.8727 3.87662 18.1011 3.87662 16.7832C3.87662 11.0435 8.60144 6.3738 14.409 6.3738C15.0569 6.3738 15.7029 6.4331 16.3368 6.55025L16.08 7.62629C16.0339 7.8193 16.0728 8.02277 16.1868 8.18516C16.3008 8.34755 16.4789 8.45334 16.6761 8.47558L18.7559 8.71036L17.5865 14.2346C17.5196 14.5503 17.6797 14.8703 17.9722 15.0064C18.066 15.0499 18.1655 15.0709 18.264 15.0709C18.4725 15.0709 18.6763 14.9766 18.811 14.8037L22.4695 10.1037C24.0688 11.9803 24.9414 14.3247 24.9414 16.7833C24.9414 18.6917 24.4076 20.5614 23.3979 22.1902C22.7474 23.2394 22.2381 24.2123 21.8406 25.1649C21.6933 25.518 21.86 25.9237 22.2132 26.071C22.3004 26.1074 22.3908 26.1246 22.4797 26.1246C22.7509 26.1246 23.0084 25.9643 23.1193 25.6984C23.488 24.8149 23.9643 23.9061 24.5755 22.9203C25.7213 21.0719 26.3269 18.9498 26.3269 16.7833C26.3269 13.8971 25.269 11.1514 23.3364 8.98991ZM19.6694 7.41908C19.8634 7.44097 20.0393 7.54378 20.1535 7.70222C20.2678 7.86066 20.3099 8.05991 20.2694 8.25105L19.5648 11.5794L23.3214 6.75351L21.4039 6.31103C21.1936 6.26247 21.0179 6.11857 20.9287 5.92196C20.8396 5.72528 20.8473 5.49839 20.9494 5.30815L23.0559 1.38558H18.9942L17.6095 7.18658L19.6694 7.41908Z" fill="#24BF9C"/>
<path d="M11.0672 19.0123C11.1638 19.059 11.2667 19.0815 11.3687 19.0815C11.5699 19.0815 11.7671 18.9938 11.9021 18.8311L16.5834 13.1908C16.7369 13.0058 16.7836 12.7544 16.7066 12.5267C16.6297 12.2989 16.4402 12.1273 16.206 12.0732L15.0513 11.8068L15.9013 9.70132C15.9875 9.48781 15.9619 9.2454 15.8332 9.05453C15.7044 8.86367 15.4892 8.74922 15.2589 8.74922H11.4887C11.1681 8.74922 10.8893 8.96925 10.8149 9.28115L9.70778 13.919C9.66171 14.112 9.70058 14.3155 9.81461 14.4779C9.92865 14.6403 10.1068 14.7461 10.3039 14.7683L11.401 14.8922L10.6913 18.2452C10.6252 18.5569 10.7804 18.8735 11.0672 19.0123V19.0123ZM11.2373 13.4793L12.0356 10.1348H14.2321L13.4629 12.0401C13.3871 12.2281 13.3973 12.4398 13.4909 12.6195C13.5845 12.7992 13.7522 12.929 13.9495 12.9746L14.7994 13.1707L12.6279 15.7872L12.9146 14.4329C12.955 14.2418 12.913 14.0426 12.7987 13.8841C12.6844 13.7257 12.5086 13.6229 12.3145 13.601L11.2373 13.4793Z" fill="#24BF9C"/>
<path d="M21.5934 27.728H21.5929C21.2104 27.728 20.9004 28.0382 20.9004 28.4208C20.9004 28.8034 21.2108 29.1136 21.5934 29.1136C21.976 29.1136 22.2862 28.8034 22.2862 28.4208C22.2862 28.0382 21.976 27.728 21.5934 27.728Z" fill="#24BF9C"/>
</svg>
