<svg xmlns="http://www.w3.org/2000/svg" width="204" height="216" fill="none" viewBox="0 0 204 216">
  <circle cx="92" cy="135" r="75" fill="#F4FCFA"/>
  <path fill="#3F3D56" d="M88 183c-.5-25 6-51 20-67.5-21.5 1-38 16-43 33 8.21 13.859 21.5 32.5 23 34.5z"/>
  <path fill="#24BF9C" d="M153.887 67.165A213.735 213.735 0 01166 59.5a433.63 433.63 0 00-12.113 7.665c-61.73 42.087-68.02 96.655-57.656 126.052L93 195l-7.774-13.5-17.275-30C68.999 158 59.5 192.5 44 213c15.077-22.609 16.826-40.936 17.77-66.13l2.23-2.231 3.951 6.861 17.275 30c0-54.408 22.769-84.155 68.661-114.335z"/>
  <path stroke="#24BF9C" stroke-linejoin="round" stroke-width="5" d="M67.951 151.5C68.999 158 59.5 192.5 44 213c15.077-22.609 16.826-40.936 17.77-66.13l2.23-2.231L85.226 181.5m0 0L93 195l3.23-1.783C85.227 162 93 102.399 166 59.5c-54 33-80.774 63-80.774 122z"/>
  <circle cx="70" cy="105" r="13" fill="#3F3D56"/>
  <path fill="#24BF9C" stroke="#24BF9C" stroke-linecap="round" stroke-linejoin="round" d="M166.9 39.91c-4.568 15.855-19.629 20.49-19.629 20.49s-11.299-10.669-6.316-27.965C145.939 15.138 164.436.824 164.436.824s7.032 23.23 2.464 39.086z"/>
  <path stroke="#F4FCFA" stroke-linecap="round" stroke-linejoin="round" d="M147.271 60.4c2.677-2.939 4.952-5.844 6.884-8.9M164.436.824c-.315 13.085-1.099 23.038-2.761 31.176-1.587 7.774-3.975 13.892-7.52 19.5m0 0c3.863-7.29-.98-14.207-8.655-16.5"/>
</svg>
