<svg width="129" height="128" viewBox="0 0 129 128" fill="none" xmlns="http://www.w3.org/2000/svg">
<g clip-path="url(#clip0_105_78295)">
<rect x="-18.0991" y="-22.7556" width="165.087" height="165.102" rx="68.4799" fill="#F1FAF3"/>
<ellipse cx="64.4443" cy="59.7955" rx="82.5434" ry="82.5511" fill="#F1FAF3"/>
<path d="M60.13 100.437C59.744 81.1305 64.7632 61.0517 75.5739 48.3093C58.9718 49.0816 46.2306 60.6655 42.3696 73.794C48.7099 84.4966 58.9718 98.8926 60.13 100.437Z" fill="#3A375F"/>
<ellipse cx="46.2309" cy="40.201" rx="10.0385" ry="10.0394" fill="#3A375F"/>
<path d="M111.007 10.9824C113.959 8.97002 117.074 6.99458 120.361 5.06299C117.116 7.04627 113.998 9.01554 111.007 10.9824C63.34 43.4848 58.4833 85.6257 66.4855 108.328L63.9907 109.705L57.9878 99.2792L44.6481 76.1113C45.4573 81.131 38.1223 107.774 26.1533 123.606C37.7956 106.146 39.1461 91.9925 39.8746 72.5354L41.5972 70.8126L44.6481 76.1113L57.9878 99.2792C57.9878 57.2615 75.5697 34.2893 111.007 10.9824Z" fill="#459F5E"/>
<path fill-rule="evenodd" clip-rule="evenodd" d="M122.293 3.90489C122.929 4.96519 122.591 6.33956 121.536 6.9842C118.315 8.95289 115.223 10.9054 112.261 12.8533C65.3775 44.8298 60.9774 85.9248 68.6102 107.579C68.9761 108.617 68.538 109.768 67.5743 110.3L65.0795 111.676C64.0045 112.269 62.6525 111.892 62.0398 110.828L46.1343 83.204C46.0857 83.4353 46.0352 83.6701 45.9827 83.9082C45.2 87.4585 43.9589 91.8402 42.3199 96.5446C39.0526 105.922 34.1333 116.785 27.9505 124.963C27.216 125.935 25.8425 126.146 24.8497 125.441C23.857 124.736 23.6048 123.369 24.2804 122.356C35.5662 105.43 36.9004 91.7994 37.6249 72.4508C37.6461 71.8831 37.8812 71.3444 38.2828 70.9427L40.0054 69.2199C40.5008 68.7245 41.1985 68.4879 41.8931 68.5797C42.5877 68.6715 43.1999 69.0814 43.5495 69.6886L55.9603 91.2431C56.9681 73.6643 61.3842 59.395 69.3077 46.9074C78.375 32.617 91.9232 20.8402 109.755 9.11081C112.744 7.07297 115.897 5.07417 119.22 3.12112C120.286 2.49478 121.658 2.84459 122.293 3.90489ZM61.4858 81.3613C60.6824 86.7424 60.267 92.492 60.2418 98.679L62.5624 102.709C61.1814 96.4033 60.6947 89.1589 61.4858 81.3613ZM42.4544 76.8129L41.9887 76.0042C41.885 78.3484 41.7629 80.6256 41.6035 82.8512C41.9629 81.2111 42.208 79.8036 42.3409 78.6793C42.4436 77.8105 42.4677 77.1994 42.4544 76.8129Z" fill="#459F5E"/>
</g>
<defs>
<clipPath id="clip0_105_78295">
<rect x="0.5" width="128" height="128" rx="64" fill="white"/>
</clipPath>
</defs>
</svg>
