<svg width="32" height="32" viewBox="0 0 32 32" fill="none" xmlns="http://www.w3.org/2000/svg">
<g clip-path="url(#clip0_105_73394)">
<path d="M13 21H26.17L23.59 23.59L25 25L30 20L25 15L23.59 16.41L26.17 19H13V21Z" fill="#459F5E"/>
<path d="M22 14V10C22.0008 9.86841 21.9755 9.73795 21.9258 9.61611C21.876 9.49427 21.8027 9.38346 21.71 9.29002L14.71 2.29002C14.6166 2.19734 14.5057 2.12401 14.3839 2.07425C14.2621 2.02448 14.1316 1.99926 14 2.00002H4C3.46957 2.00002 2.96086 2.21073 2.58579 2.5858C2.21071 2.96088 2 3.46958 2 4.00002V28C2 28.5305 2.21071 29.0392 2.58579 29.4142C2.96086 29.7893 3.46957 30 4 30H20C20.5304 30 21.0391 29.7893 21.4142 29.4142C21.7893 29.0392 22 28.5305 22 28V26H20V28H4V4.00002H12V10C12 10.5305 12.2107 11.0392 12.5858 11.4142C12.9609 11.7893 13.4696 12 14 12H20V14H22ZM14 10V4.41002L19.59 10H14Z" fill="#459F5E"/>
</g>
<defs>
<clipPath id="clip0_105_73394">
<rect width="32" height="32" fill="white"/>
</clipPath>
</defs>
</svg>
