<svg width="24" height="24" viewBox="0 0 24 24" fill="none" xmlns="http://www.w3.org/2000/svg">
<circle cx="11.9997" cy="12" r="10.8" fill="#459F5E"/>
<g clip-path="url(#clip0_105_74990)">
<path d="M14.5 16H9.5V17H14.5V16Z" fill="white"/>
<path d="M13.5 18H10.5V19H13.5V18Z" fill="white"/>
<path d="M12.0001 5C10.674 5 9.40223 5.52678 8.46455 6.46447C7.52687 7.40215 7.00008 8.67392 7.00008 10C6.96627 10.7267 7.10547 11.451 7.40623 12.1133C7.70699 12.7757 8.16072 13.3572 8.73008 13.81C9.23008 14.275 9.50008 14.54 9.50008 15H10.5001C10.5001 14.08 9.94508 13.565 9.40508 13.07C8.93776 12.7121 8.56532 12.2451 8.32037 11.7099C8.07543 11.1747 7.96545 10.5876 8.00008 10C8.00008 8.93913 8.42151 7.92172 9.17166 7.17157C9.9218 6.42143 10.9392 6 12.0001 6C13.0609 6 14.0784 6.42143 14.8285 7.17157C15.5787 7.92172 16.0001 8.93913 16.0001 10C16.0341 10.588 15.9234 11.1754 15.6776 11.7107C15.4317 12.2459 15.0583 12.7127 14.5901 13.07C14.0551 13.57 13.5001 14.07 13.5001 15H14.5001C14.5001 14.54 14.7651 14.275 15.2701 13.805C15.8391 13.353 16.2926 12.7724 16.5933 12.1109C16.8941 11.4494 17.0335 10.7259 17.0001 10C17.0001 9.34339 16.8708 8.69321 16.6195 8.08658C16.3682 7.47995 15.9999 6.92876 15.5356 6.46447C15.0713 6.00017 14.5201 5.63188 13.9135 5.3806C13.3069 5.12933 12.6567 5 12.0001 5Z" fill="white"/>
</g>
<defs>
<clipPath id="clip0_105_74990">
<rect width="16" height="16" fill="white" transform="translate(4 4)"/>
</clipPath>
</defs>
</svg>
