<svg width="120" height="64" viewBox="0 0 120 64" fill="none" xmlns="http://www.w3.org/2000/svg">
<path d="M31.9926 46.7855C31.993 45.9049 32.1894 45.0354 32.5674 44.2401C32.9454 43.4448 33.4956 42.7435 34.1781 42.187C34.8606 41.6306 35.6583 41.233 36.5135 41.0229C37.3687 40.8129 38.2599 40.7957 39.1225 40.9726C39.9851 41.1496 40.7976 41.5162 41.5011 42.0459C42.2045 42.5756 42.7813 43.2552 43.1897 44.0353C43.5981 44.8155 43.8278 45.6768 43.8622 46.5567C43.8966 47.4366 43.7348 48.3132 43.3886 49.1229C43.3944 49.1164 43.4004 49.1101 43.4062 49.1036C43.1425 49.7183 42.7769 50.284 42.3249 50.7769C42.3235 50.7784 42.3221 50.7798 42.3208 50.7813C42.2843 50.8211 42.2476 50.8606 42.2101 50.8994C41.6676 51.4652 41.018 51.9177 40.2991 52.2305C39.5803 52.5433 38.8065 52.7102 38.0226 52.7214L38.2232 63.6182H37.6034L37.7289 56.4262L36.8323 55.9542L36.9691 55.6944L37.7346 56.0974L37.7935 52.7209C36.2429 52.6853 34.7678 52.0444 33.6837 50.9352C32.5996 49.8259 31.9926 48.3365 31.9926 46.7855Z" fill="#94D39E"/>
<path d="M13.5846 39.7007C13.5852 38.4495 13.8642 37.2141 14.4013 36.084C14.9384 34.9539 15.7202 33.9574 16.69 33.1668C17.6598 32.3761 18.7933 31.8111 20.0084 31.5127C21.2235 31.2142 22.4898 31.1898 23.7155 31.4412C24.9412 31.6926 26.0957 32.2135 27.0952 32.9662C28.0947 33.7189 28.9143 34.6845 29.4946 35.793C30.0748 36.9016 30.4012 38.1253 30.4501 39.3756C30.499 40.6259 30.2691 41.8714 29.7772 43.0219C29.7855 43.0127 29.794 43.0038 29.8022 42.9946C29.4275 43.8679 28.908 44.6717 28.2658 45.3721C28.2638 45.3742 28.2619 45.3763 28.2599 45.3784C28.2081 45.4349 28.156 45.4911 28.1027 45.5461C27.3318 46.3502 26.4088 46.9931 25.3874 47.4375C24.366 47.882 23.2665 48.1191 22.1527 48.1351L22.4377 63.6183H21.557L21.7353 53.3992L20.4613 52.7285L20.6557 52.3593L21.7434 52.932L21.8271 48.1343C19.6239 48.0838 17.5278 47.1731 15.9875 45.597C14.4471 44.0209 13.5846 41.9046 13.5846 39.7007Z" fill="#544F8B"/>
<path d="M64.5711 33.1105C64.572 31.5145 64.9278 29.9386 65.6129 28.4971C66.2981 27.0556 67.2952 25.7846 68.5322 24.7761C69.7693 23.7676 71.2151 23.0469 72.7651 22.6662C74.315 22.2855 75.9302 22.2544 77.4937 22.575C79.0572 22.8957 80.5297 23.5601 81.8047 24.5202C83.0797 25.4803 84.1251 26.712 84.8652 28.126C85.6054 29.5401 86.0217 31.101 86.0841 32.6958C86.1464 34.2906 85.8532 35.8793 85.2258 37.3468C85.2363 37.3351 85.2472 37.3238 85.2576 37.312C84.7797 38.426 84.1171 39.4513 83.2978 40.3447C83.2954 40.3474 83.2928 40.35 83.2904 40.3527C83.2243 40.4248 83.1578 40.4964 83.0898 40.5667C82.1064 41.5923 80.9292 42.4124 79.6263 42.9793C78.3234 43.5462 76.9209 43.8486 75.5002 43.869L75.8638 63.6187H74.7405L74.9678 50.5837L73.3428 49.7282L73.5907 49.2573L74.9782 49.9878L75.085 43.8681C72.2746 43.8036 69.601 42.642 67.6361 40.6316C65.6713 38.6212 64.5712 35.9217 64.5711 33.1105Z" fill="#544F8B"/>
<path d="M95.4791 28.9005C95.4801 27.0843 95.885 25.291 96.6647 23.6506C97.4443 22.0102 98.5791 20.5638 99.9868 19.4161C101.394 18.2684 103.04 17.4483 104.804 17.0151C106.567 16.5818 108.406 16.5464 110.185 16.9113C111.964 17.2762 113.64 18.0324 115.091 19.1249C116.541 20.2175 117.731 21.6191 118.573 23.2283C119.416 24.8374 119.889 26.6137 119.96 28.4286C120.031 30.2435 119.698 32.0514 118.984 33.7214C118.996 33.7081 119.008 33.6951 119.02 33.6817C118.476 34.9494 117.722 36.1162 116.79 37.1329C116.787 37.1359 116.784 37.1389 116.781 37.142C116.706 37.224 116.63 37.3055 116.553 37.3855C115.434 38.5526 114.094 39.4858 112.612 40.131C111.129 40.7761 109.533 41.1203 107.916 41.1435L108.33 63.6183H107.052L107.31 48.7847L105.461 47.8111L105.743 47.2753L107.322 48.1065L107.444 41.1424C104.245 41.0691 101.203 39.7471 98.967 37.4593C96.731 35.1715 95.4791 32.0995 95.4791 28.9005Z" fill="#94D39E"/>
<path d="M112.746 11.7175C109.51 11.7175 106.887 9.09442 106.887 5.85873C106.887 2.62304 109.51 0 112.746 0C115.981 0 118.604 2.62304 118.604 5.85873C118.604 9.09442 115.981 11.7175 112.746 11.7175Z" fill="#FFD643"/>
<path d="M97.1279 34.164C88.2639 34.164 81.0782 26.9782 81.0782 18.1141C81.0782 9.24999 88.2639 2.06421 97.1279 2.06421C105.992 2.06421 113.178 9.24999 113.178 18.1141C113.178 26.9782 105.992 34.164 97.1279 34.164Z" fill="#459F5E"/>
<path opacity="0.2" d="M108.979 7.39417C110.476 10.8961 110.679 14.8163 109.552 18.4543C108.424 22.0922 106.04 25.2108 102.825 27.2527C99.6106 29.2947 95.7744 30.127 92.0024 29.6009C88.2304 29.0748 84.7683 27.2246 82.2349 24.3809C83.1494 26.5204 84.5182 28.4356 86.2464 29.9936C87.9745 31.5517 90.0207 32.7154 92.2433 33.4041C94.4658 34.0928 96.8115 34.2901 99.1179 33.9822C101.424 33.6744 103.636 32.8688 105.6 31.6213C107.564 30.3737 109.234 28.7141 110.493 26.7573C111.752 24.8006 112.57 22.5935 112.892 20.2889C113.213 17.9844 113.029 15.6376 112.354 13.411C111.678 11.1845 110.526 9.13144 108.979 7.39417Z" fill="#1D2023"/>
<path d="M97.0836 18.1141H97.0395L96.2458 63.6182H97.9214L97.0836 18.1141Z" fill="#E7E3FF"/>
<path d="M94.531 42.1977L97.1841 43.5945L96.8143 44.2968L94.1613 42.9L94.531 42.1977Z" fill="#E7E3FF"/>
<path d="M72.5791 63.1923C72.5791 63.1923 72.5212 61.9789 71.3341 62.1199L72.5791 63.1923Z" fill="#E7E3FF"/>
<path d="M72.9147 62.0379C72.5865 62.0379 72.3205 61.7719 72.3205 61.4437C72.3205 61.1156 72.5865 60.8496 72.9147 60.8496C73.2428 60.8496 73.5088 61.1156 73.5088 61.4437C73.5088 61.7719 73.2428 62.0379 72.9147 62.0379Z" fill="#459F5E"/>
<path d="M72.8435 62.4442H73.0112V63.6182H72.8435V62.4442Z" fill="#E7E3FF"/>
<path d="M33.3442 63.1923C33.3442 63.1923 33.2863 61.9789 32.0992 62.1199L33.3442 63.1923Z" fill="#E7E3FF"/>
<path d="M33.6793 62.0379C33.3512 62.0379 33.0852 61.7719 33.0852 61.4437C33.0852 61.1156 33.3512 60.8496 33.6793 60.8496C34.0074 60.8496 34.2734 61.1156 34.2734 61.4437C34.2734 61.7719 34.0074 62.0379 33.6793 62.0379Z" fill="#459F5E"/>
<path d="M33.6082 62.4442H33.7759V63.6182H33.6082V62.4442Z" fill="#E7E3FF"/>
<path d="M113.751 63.0254C113.751 63.0254 113.694 61.812 112.506 61.9531L113.751 63.0254Z" fill="#E7E3FF"/>
<path d="M114.087 61.8706C113.759 61.8706 113.493 61.6046 113.493 61.2765C113.493 60.9484 113.759 60.6824 114.087 60.6824C114.415 60.6824 114.681 60.9484 114.681 61.2765C114.681 61.6046 114.415 61.8706 114.087 61.8706Z" fill="#459F5E"/>
<path d="M114.016 62.2766H114.184V63.4506H114.016V62.2766Z" fill="#E7E3FF"/>
<path d="M104.024 63.1089C104.024 63.1089 103.967 61.8955 102.779 62.0366L104.024 63.1089Z" fill="#E7E3FF"/>
<path d="M56.3218 63.6327C56.3218 63.6327 56.2639 62.4193 55.0768 62.5604L56.3218 63.6327Z" fill="#E7E3FF"/>
<path d="M104.36 61.954C104.032 61.954 103.766 61.688 103.766 61.3599C103.766 61.0318 104.032 60.7657 104.36 60.7657C104.688 60.7657 104.954 61.0318 104.954 61.3599C104.954 61.688 104.688 61.954 104.36 61.954Z" fill="#459F5E"/>
<path d="M104.289 62.3606H104.457V63.5346H104.289V62.3606Z" fill="#E7E3FF"/>
<path d="M51.2905 63.6327C51.2905 63.6327 51.2326 62.4193 50.0455 62.5604L51.2905 63.6327Z" fill="#E7E3FF"/>
<path d="M53.6382 63.6327C53.6382 63.6327 53.5803 62.4193 52.3932 62.5604L53.6382 63.6327Z" fill="#E7E3FF"/>
<path d="M47.9652 20.2097L49.6564 18.8571C48.3426 18.7121 47.8027 19.4287 47.5818 19.9958C46.5554 19.5696 45.438 20.1282 45.438 20.1282L48.8218 21.3566C48.6511 20.9007 48.354 20.5028 47.9652 20.2097Z" fill="white"/>
<path d="M73.6854 33.9879L75.3767 32.6353C74.0628 32.4903 73.523 33.2069 73.302 33.774C72.2756 33.3478 71.1582 33.9064 71.1582 33.9064L74.5421 35.1348C74.3713 34.6789 74.0742 34.281 73.6854 33.9879Z" fill="white"/>
<path d="M2.52721 45.7455L4.21845 44.3928C2.90459 44.2479 2.36476 44.9644 2.14383 45.5316C1.11739 45.1054 0 45.664 0 45.664L3.38386 46.8924C3.21315 46.4364 2.91599 46.0386 2.52721 45.7455Z" fill="white"/>
<path d="M77.7682 63.6327C77.7682 63.6327 77.8261 62.4193 79.0132 62.5604L77.7682 63.6327Z" fill="#E7E3FF"/>
<path d="M25.4204 63.6327C25.4204 63.6327 25.3625 62.4193 24.1754 62.5604L25.4204 63.6327Z" fill="#E7E3FF"/>
<path d="M67.4746 63.6327C67.4746 63.6327 67.4167 62.4193 66.2296 62.5604L67.4746 63.6327Z" fill="#E7E3FF"/>
<path d="M108.144 63.6327C108.144 63.6327 108.086 62.4193 106.899 62.5604L108.144 63.6327Z" fill="#E7E3FF"/>
<path d="M53.4503 63.7169C53.4503 63.7169 53.5082 62.5035 54.6953 62.6446L53.4503 63.7169Z" fill="#E7E3FF"/>
<path d="M15.334 63.6327C15.334 63.6327 15.2761 62.4193 14.089 62.5604L15.334 63.6327Z" fill="#E7E3FF"/>
<path d="M16.4209 63.6327C16.4209 63.6327 16.363 62.4193 15.1759 62.5604L16.4209 63.6327Z" fill="#E7E3FF"/>
<path d="M58.4816 63.6327C58.4816 63.6327 58.5395 62.4193 59.7266 62.5604L58.4816 63.6327Z" fill="#E7E3FF"/>
<path d="M38.5333 63.6327C38.5333 63.6327 38.5912 62.4193 39.7783 62.5604L38.5333 63.6327Z" fill="#E7E3FF"/>
<path d="M93.7843 63.6327C93.7843 63.6327 93.8422 62.4193 95.0293 62.5604L93.7843 63.6327Z" fill="#E7E3FF"/>
<path d="M110.807 63.6327C110.807 63.6327 110.865 62.4193 112.052 62.5604L110.807 63.6327Z" fill="#E7E3FF"/>
<path d="M46.2389 63.6327C46.2389 63.6327 46.2968 62.4193 47.4839 62.5604L46.2389 63.6327Z" fill="#E7E3FF"/>
<path d="M16.233 63.7169C16.233 63.7169 16.2909 62.5035 17.478 62.6446L16.233 63.7169Z" fill="#E7E3FF"/>
<path d="M33.7579 63.7169C33.7579 63.7169 33.8158 62.5035 35.0029 62.6446L33.7579 63.7169Z" fill="#E7E3FF"/>
<path d="M9.04523 63.4742H120V63.6605H9.04523V63.4742Z" fill="#E7E3FF"/>
</svg>
